<svg width="24" height="24" viewBox="0 0 24 24" fill="none" xmlns="http://www.w3.org/2000/svg">
<path d="M11.999 7.65454C11.8275 7.65454 11.6698 7.68774 11.5259 7.75415C11.382 7.82056 11.2437 7.92017 11.1108 8.05298L4.86035 14.4363C4.65007 14.6521 4.54492 14.915 4.54492 15.2249C4.54492 15.4241 4.59473 15.6095 4.69434 15.781C4.79395 15.9526 4.92952 16.0909 5.10107 16.196C5.26709 16.2957 5.45247 16.3455 5.65723 16.3455C5.96712 16.3455 6.23828 16.2292 6.4707 15.9968L11.999 10.3108L17.5273 15.9968C17.7653 16.2292 18.0365 16.3455 18.3408 16.3455C18.5511 16.3455 18.7393 16.2957 18.9053 16.196C19.0713 16.0909 19.2041 15.9526 19.3037 15.781C19.4033 15.6095 19.4531 15.4241 19.4531 15.2249C19.4531 14.915 19.348 14.6521 19.1377 14.4363L12.8872 8.05298C12.7544 7.91463 12.616 7.81502 12.4722 7.75415C12.3228 7.68774 12.165 7.65454 11.999 7.65454Z" fill="#3C3C43" fill-opacity="0.3"/>
</svg>
