<svg width="24" height="24" viewBox="0 0 24 24" fill="none" xmlns="http://www.w3.org/2000/svg">
<path d="M16.3452 12C16.3452 11.8285 16.312 11.6707 16.2456 11.5269C16.1792 11.383 16.0796 11.2446 15.9468 11.1118L9.56348 4.86133C9.34766 4.65104 9.0848 4.5459 8.7749 4.5459C8.57568 4.5459 8.3903 4.5957 8.21875 4.69531C8.0472 4.79492 7.90885 4.9305 7.80371 5.10205C7.7041 5.26807 7.6543 5.45345 7.6543 5.6582C7.6543 5.9681 7.77051 6.23926 8.00293 6.47168L13.689 12L8.00293 17.5283C7.77051 17.7663 7.6543 18.0374 7.6543 18.3418C7.6543 18.5521 7.7041 18.7402 7.80371 18.9062C7.90885 19.0723 8.0472 19.2051 8.21875 19.3047C8.3903 19.4043 8.57568 19.4541 8.7749 19.4541C9.0848 19.4541 9.34766 19.349 9.56348 19.1387L15.9468 12.8882C16.0851 12.7554 16.1847 12.617 16.2456 12.4731C16.312 12.3237 16.3452 12.166 16.3452 12Z" fill="#3C3C43" fill-opacity="0.3"/>
</svg>
