<svg xmlns="http://www.w3.org/2000/svg" xmlns:xlink="http://www.w3.org/1999/xlink" viewBox="0,0,256,256" width="32px" height="32px" fill-rule="nonzero"><g fill="#e5e7eb" fill-rule="nonzero" stroke="none" stroke-width="1" stroke-linecap="butt" stroke-linejoin="miter" stroke-miterlimit="10" stroke-dasharray="" stroke-dashoffset="0" font-family="none" font-weight="none" font-size="none" text-anchor="none" style="mix-blend-mode: normal"><g transform="scale(8,8)"><path d="M16,4c-6.61719,0 -12,5.38281 -12,12c0,6.61719 5.38281,12 12,12c6.61719,0 12,-5.38281 12,-12c0,-6.61719 -5.38281,-12 -12,-12zM14.96875,6.0625c0.01172,0 0.01953,0 0.03125,0c0.03516,0.52344 0.46875,0.9375 1,0.9375c0.53125,0 0.96484,-0.41406 1,-0.9375c4.73828,0.46484 8.47266,4.19922 8.9375,8.9375c-0.52344,0.03516 -0.9375,0.46875 -0.9375,1c0,0.53125 0.41406,0.96484 0.9375,1c-0.46484,4.73828 -4.19922,8.47266 -8.9375,8.9375c-0.03516,-0.52344 -0.46875,-0.9375 -1,-0.9375c-0.53125,0 -0.96484,0.41406 -1,0.9375c-4.73828,-0.46484 -8.47266,-4.19922 -8.9375,-8.9375c0.52344,-0.03516 0.9375,-0.46875 0.9375,-1c0,-0.53125 -0.41406,-0.96484 -0.9375,-1c0.46484,-4.73047 4.18359,-8.46094 8.90625,-8.9375zM15,9v7.40625l0.28125,0.3125l4,4l1.4375,-1.4375l-3.71875,-3.71875v-6.5625z"></path></g></g></svg>