<svg width="39" height="39" viewBox="0 0 39 39" fill="none" xmlns="http://www.w3.org/2000/svg">
<path d="M20.7188 25.87H21.775C22.8312 25.87 23.7087 24.9275 23.7087 23.79C23.7087 22.3763 23.205 22.1 22.3763 21.8075L20.735 21.2388V25.87H20.7188Z" fill="white"/>
<path d="M19.4514 3.08743C10.4814 3.11993 3.21761 10.4162 3.25011 19.3862C3.28261 28.3562 10.5789 35.6199 19.5489 35.5874C28.5189 35.5549 35.7826 28.2587 35.7501 19.2887C35.7176 10.3187 28.4214 3.07118 19.4514 3.08743ZM23.1726 19.4999C24.4401 19.9387 26.1464 20.8812 26.1464 23.7899C26.1464 26.2924 24.1801 28.3074 21.7751 28.3074H20.7189V29.2499C20.7189 29.9162 20.1664 30.4687 19.5001 30.4687C18.8339 30.4687 18.2814 29.9162 18.2814 29.2499V28.3074H17.6964C15.0314 28.3074 12.8701 26.0649 12.8701 23.3024C12.8701 22.6362 13.4226 22.0837 14.0889 22.0837C14.7551 22.0837 15.3076 22.6362 15.3076 23.3024C15.3076 24.7162 16.3801 25.8699 17.6964 25.8699H18.2814V20.3774L15.8276 19.4999C14.5601 19.0612 12.8539 18.1187 12.8539 15.2099C12.8539 12.7074 14.8201 10.6924 17.2251 10.6924H18.2814V9.74993C18.2814 9.08368 18.8339 8.53118 19.5001 8.53118C20.1664 8.53118 20.7189 9.08368 20.7189 9.74993V10.6924H21.3039C23.9689 10.6924 26.1301 12.9349 26.1301 15.6974C26.1301 16.3637 25.5776 16.9162 24.9114 16.9162C24.2451 16.9162 23.6926 16.3637 23.6926 15.6974C23.6926 14.2837 22.6201 13.1299 21.3039 13.1299H20.7189V18.6224L23.1726 19.4999Z" fill="white"/>
<path d="M15.3076 15.2261C15.3076 16.6399 15.8114 16.9161 16.6401 17.2086L18.2814 17.7774V13.1299H17.2251C16.1689 13.1299 15.3076 14.0724 15.3076 15.2261Z" fill="white"/>
</svg>
