<svg width="39" height="39" viewBox="0 0 39 39" fill="none" xmlns="http://www.w3.org/2000/svg">
<path d="M30.3717 18.7363C29.4455 18.4925 28.3567 18.3625 27.0567 18.3625C25.253 18.3625 24.5867 18.8013 23.6605 19.5C23.6117 19.5325 23.563 19.5813 23.5142 19.63L21.9705 21.2713C20.6705 22.6363 18.3305 22.6525 17.0305 21.255L15.4867 19.63C15.438 19.5813 15.3892 19.5325 15.3405 19.5C14.4142 18.8013 13.748 18.3625 11.9442 18.3625C10.6442 18.3625 9.55547 18.4925 8.62922 18.7363C4.76172 19.7763 4.76172 22.8475 4.76172 25.545V27.0563C4.76172 31.135 4.76172 35.75 13.4555 35.75H25.5455C31.3142 35.75 34.2392 32.825 34.2392 27.0563V25.545C34.2392 22.8475 34.2392 19.7763 30.3717 18.7363ZM23.2867 29.9H15.7142C15.0967 29.9 14.593 29.3963 14.593 28.7625C14.593 28.1288 15.0967 27.625 15.7142 27.625H23.2867C23.9042 27.625 24.408 28.1288 24.408 28.7625C24.408 29.3963 23.9042 29.9 23.2867 29.9Z" fill="white"/>
<path d="M31.2167 10.4325V16.445C31.1517 16.4125 31.0704 16.3962 31.0054 16.38C29.8679 16.0712 28.5842 15.925 27.0567 15.925C24.5542 15.925 23.3842 16.6563 22.1817 17.5663C22.0192 17.68 21.8729 17.8263 21.7429 17.9563L20.1829 19.5975C20.0367 19.76 19.7767 19.8575 19.5004 19.8575C19.2242 19.8575 18.9642 19.76 18.8017 19.5813L17.2742 17.9725C17.1279 17.81 16.9654 17.6638 16.8029 17.55C15.6329 16.6562 14.4467 15.925 11.9442 15.925C10.4167 15.925 9.13293 16.0712 7.99543 16.38C7.93043 16.3962 7.84918 16.4125 7.78418 16.445V10.4325C7.78418 7.06875 7.78418 3.25 14.9667 3.25H24.0342C31.2167 3.25 31.2167 7.06875 31.2167 10.4325Z" fill="white"/>
</svg>
