<svg width="22" height="20" viewBox="0 0 22 20" fill="none" xmlns="http://www.w3.org/2000/svg">
<path d="M1 20C1.48333 18.7667 1.80433 17.496 1.963 16.188C2.121 14.8793 2.21667 13.5667 2.25 12.25C1.6 12 1.06233 11.5833 0.637 11C0.212333 10.4167 0 9.75 0 9V7C1.91667 6.36667 3.871 5.4 5.863 4.1C7.85433 2.8 9.56667 1.43333 11 0C12.4333 1.43333 14.1457 2.8 16.137 4.1C18.129 5.4 20.0833 6.36667 22 7V9C22 9.75 21.7877 10.4167 21.363 11C20.9377 11.5833 20.4 12 19.75 12.25C19.7833 13.5667 19.8793 14.8793 20.038 16.188C20.196 17.496 20.5167 18.7667 21 20H1ZM4.9 7H17.1C15.8 6.26667 14.6293 5.51233 13.588 4.737C12.546 3.96233 11.6833 3.28333 11 2.7C10.3167 3.28333 9.45433 3.96233 8.413 4.737C7.371 5.51233 6.2 6.26667 4.9 7ZM13.5 10.5C13.9167 10.5 14.2707 10.354 14.562 10.062C14.854 9.77067 15 9.41667 15 9H12C12 9.41667 12.146 9.77067 12.438 10.062C12.7293 10.354 13.0833 10.5 13.5 10.5ZM8.5 10.5C8.91667 10.5 9.27067 10.354 9.562 10.062C9.854 9.77067 10 9.41667 10 9H7C7 9.41667 7.146 9.77067 7.438 10.062C7.72933 10.354 8.08333 10.5 8.5 10.5ZM3.5 10.5C3.91667 10.5 4.27067 10.354 4.562 10.062C4.854 9.77067 5 9.41667 5 9H2C2 9.41667 2.146 9.77067 2.438 10.062C2.72933 10.354 3.08333 10.5 3.5 10.5ZM3.65 18H6.325C6.475 17 6.59167 16.0083 6.675 15.025C6.75833 14.0417 6.825 13.05 6.875 12.05C6.725 11.9667 6.575 11.879 6.425 11.787C6.275 11.6957 6.13333 11.5833 6 11.45C5.75 11.7 5.47933 11.904 5.188 12.062C4.896 12.2207 4.58333 12.3417 4.25 12.425C4.21667 13.375 4.15833 14.3127 4.075 15.238C3.99167 16.1627 3.85 17.0833 3.65 18ZM8.35 18H13.65C13.5167 17.0833 13.4127 16.1667 13.338 15.25C13.2627 14.3333 13.2 13.4083 13.15 12.475C12.7167 12.4417 12.321 12.3373 11.963 12.162C11.6043 11.9873 11.2833 11.7583 11 11.475C10.7167 11.7583 10.3877 11.9873 10.013 12.162C9.63767 12.3373 9.25 12.4417 8.85 12.475C8.8 13.4083 8.73767 14.3333 8.663 15.25C8.58767 16.1667 8.48333 17.0833 8.35 18ZM15.675 18H18.35C18.15 17.0833 18.0083 16.1627 17.925 15.238C17.8417 14.3127 17.7833 13.375 17.75 12.425C17.4167 12.3417 17.1 12.2207 16.8 12.062C16.5 11.904 16.2333 11.7 16 11.45C15.8667 11.5833 15.725 11.6957 15.575 11.787C15.425 11.879 15.275 11.9667 15.125 12.05C15.175 13.05 15.2457 14.0417 15.337 15.025C15.429 16.0083 15.5417 17 15.675 18ZM18.5 10.5C18.9167 10.5 19.2707 10.354 19.562 10.062C19.854 9.77067 20 9.41667 20 9H17C17 9.41667 17.146 9.77067 17.438 10.062C17.7293 10.354 18.0833 10.5 18.5 10.5Z" fill="#C5C5C7"/>
</svg>
