<svg width="20" height="18" viewBox="0 0 20 18" fill="none" xmlns="http://www.w3.org/2000/svg">
<path d="M2.5026 17.3346C2.04427 17.3346 1.65205 17.1716 1.32594 16.8455C0.999271 16.5188 0.835938 16.1263 0.835938 15.668V5.66797C0.835938 5.20964 0.999271 4.81741 1.32594 4.4913C1.65205 4.16464 2.04427 4.0013 2.5026 4.0013H5.1276L6.66927 2.33464H11.6693V5.66797H14.1693V8.16797H17.5026V15.668C17.5026 16.1263 17.3395 16.5188 17.0134 16.8455C16.6868 17.1716 16.2943 17.3346 15.8359 17.3346H2.5026ZM9.16927 14.418C10.2109 14.418 11.0965 14.0535 11.8259 13.3246C12.5548 12.5952 12.9193 11.7096 12.9193 10.668C12.9193 9.6263 12.5548 8.74075 11.8259 8.0113C11.0965 7.28241 10.2109 6.91797 9.16927 6.91797C8.1276 6.91797 7.24205 7.28241 6.5126 8.0113C5.78371 8.74075 5.41927 9.6263 5.41927 10.668C5.41927 11.7096 5.78371 12.5952 6.5126 13.3246C7.24205 14.0535 8.1276 14.418 9.16927 14.418ZM9.16927 12.7513C8.58594 12.7513 8.09288 12.5499 7.6901 12.1471C7.28733 11.7444 7.08594 11.2513 7.08594 10.668C7.08594 10.0846 7.28733 9.59158 7.6901 9.1888C8.09288 8.78603 8.58594 8.58464 9.16927 8.58464C9.7526 8.58464 10.2457 8.78603 10.6484 9.1888C11.0512 9.59158 11.2526 10.0846 11.2526 10.668C11.2526 11.2513 11.0512 11.7444 10.6484 12.1471C10.2457 12.5499 9.7526 12.7513 9.16927 12.7513ZM15.8359 5.66797V4.0013H14.1693V2.33464H15.8359V0.667969H17.5026V2.33464H19.1693V4.0013H17.5026V5.66797H15.8359Z" fill="#C5C5C7"/>
</svg>
