<svg width="39" height="39" viewBox="0 0 39 39" fill="none" xmlns="http://www.w3.org/2000/svg">
<path d="M19.5 3.25C10.53 3.25 3.25 10.53 3.25 19.5C3.25 28.47 10.53 35.75 19.5 35.75C28.47 35.75 35.75 28.47 35.75 19.5C35.75 10.53 28.47 3.25 19.5 3.25ZM14.0562 24.0013C13.8775 24.4888 13.4062 24.7975 12.9187 24.7975C12.7725 24.7975 12.6425 24.7812 12.4963 24.7162C11.18 24.2288 10.075 23.27 9.37625 22.0188C7.75125 19.0938 8.75875 15.275 11.6025 13.5038L15.405 11.1475C16.8025 10.2863 18.4438 10.0262 20.0037 10.4325C21.5638 10.8387 22.88 11.8625 23.6763 13.2925C25.3013 16.2175 24.2937 20.0362 21.45 21.8075L21.0275 22.1162C20.475 22.5063 19.7113 22.3762 19.3213 21.84C18.9313 21.2875 19.0613 20.5238 19.5975 20.1338L20.1012 19.7763C21.9212 18.6388 22.5387 16.2825 21.5475 14.4788C21.0763 13.6337 20.3125 13.0325 19.4025 12.7887C18.4925 12.545 17.5337 12.6912 16.705 13.2113L12.87 15.5837C11.115 16.6725 10.4975 19.0287 11.4888 20.8487C11.895 21.58 12.545 22.1488 13.325 22.4412C13.9587 22.6688 14.2837 23.3675 14.0562 24.0013ZM27.495 25.4312L23.6925 27.7875C22.7337 28.3888 21.6612 28.6812 20.5725 28.6812C20.085 28.6812 19.5812 28.6163 19.0938 28.4863C17.5337 28.08 16.2175 27.0563 15.4375 25.6263C13.8125 22.7013 14.82 18.8825 17.6637 17.1112L18.0863 16.8025C18.6388 16.4125 19.4025 16.5425 19.7925 17.0788C20.1825 17.6313 20.0525 18.395 19.5163 18.785L19.0125 19.1425C17.1925 20.28 16.575 22.6362 17.5663 24.44C18.0375 25.285 18.8013 25.8862 19.7113 26.13C20.6213 26.3738 21.58 26.2275 22.4088 25.7075L26.2112 23.3512C27.9662 22.2625 28.5837 19.9062 27.5925 18.0863C27.1862 17.355 26.5363 16.7862 25.7563 16.4937C25.1225 16.2662 24.7975 15.5675 25.0413 14.9337C25.2687 14.3 25.9838 13.975 26.6013 14.2188C27.9175 14.7063 29.0225 15.665 29.7213 16.9163C31.33 19.8412 30.3388 23.66 27.495 25.4312Z" fill="white"/>
</svg>
