<svg width="36" height="36" viewBox="0 0 36 36" fill="none" xmlns="http://www.w3.org/2000/svg">
<g clip-path="url(#clip0_492_1271)">
<path d="M18.0016 36.0012C27.9425 36.0012 36.0012 27.9425 36.0012 18.0016C36.0012 8.06065 27.9425 0.00195312 18.0016 0.00195312C8.06066 0.00195312 0.00195312 8.06065 0.00195312 18.0016C0.00195312 27.9425 8.06066 36.0012 18.0016 36.0012Z" fill="#141160"/>
<path d="M30.729 30.7276C23.699 37.7576 12.3019 37.7553 5.27192 30.7265C-1.7547 23.6976 -1.7547 12.3017 5.27192 5.27173" fill="#241B7A"/>
<path d="M18.0005 33.4053C26.5083 33.4053 33.4053 26.5083 33.4053 18.0005C33.4053 9.49267 26.5083 2.5957 18.0005 2.5957C9.49267 2.5957 2.5957 9.49267 2.5957 18.0005C2.5957 26.5083 9.49267 33.4053 18.0005 33.4053Z" fill="#241B7A"/>
<path d="M18.0007 33.4066C9.49252 33.4055 2.59587 26.5082 2.59473 18.0001C2.59587 9.49302 9.49359 2.59637 18.0007 2.59473" fill="#33248E"/>
<path d="M17.9997 30.7415C25.0363 30.7415 30.7405 25.0372 30.7405 18.0006C30.7405 10.964 25.0363 5.25977 17.9997 5.25977C10.9631 5.25977 5.25879 10.964 5.25879 18.0006C5.25879 25.0372 10.9631 30.7415 17.9997 30.7415Z" fill="#33248E"/>
<path d="M8.98951 27.0106C4.01484 22.0337 4.01541 13.9676 8.99008 8.99077C13.9664 4.0161 22.033 4.0161 27.0088 8.99077" fill="#432DA0"/>
<path d="M18.0002 27.5545C23.2766 27.5545 27.554 23.2771 27.554 18.0006C27.554 12.7242 23.2766 8.44678 18.0002 8.44678C12.7237 8.44678 8.44629 12.7242 8.44629 18.0006C8.44629 23.2771 12.7237 27.5545 18.0002 27.5545Z" fill="#432DA0"/>
<path d="M18.0006 27.5537C12.7244 27.5537 8.44727 23.2766 8.44727 17.9998C8.44727 12.7242 12.7244 8.4471 18.0006 8.44653" fill="#583CAF"/>
<path d="M5.89867 33.1534C5.89867 33.1534 5.54933 32.8075 4.89465 32.16C4.25568 31.5052 3.3647 30.4494 2.45009 28.9628C1.59511 27.448 0.711416 25.4715 0.2896 23.0359C-0.129431 20.6201 -0.177846 17.7351 0.715415 14.7753C0.944925 14.0407 1.17158 13.283 1.51699 12.5557C1.80612 11.802 2.2218 11.0938 2.62847 10.3609C3.50595 8.94342 4.57302 7.54566 5.89596 6.35319C6.17552 6.06405 6.56306 5.77213 6.94275 5.48192L7.51309 5.04654L8.10651 4.67585C8.50247 4.42835 8.90186 4.17527 9.33553 3.9829C9.76135 3.77931 10.1827 3.54866 10.6388 3.39734C12.4219 2.68639 14.3929 2.33141 16.3942 2.35112C20.3991 2.3849 24.5463 4.03017 27.496 7.18233C30.4918 10.2873 31.7186 15.1443 30.507 19.4057C29.9152 21.5403 28.7251 23.4938 27.1861 25.0525C26.4599 25.7657 25.4284 26.5267 24.4485 27.0122C23.4467 27.5297 22.3532 27.8418 21.2558 28.0083C19.0509 28.3599 16.7745 27.9239 14.8491 26.9132C13.8935 26.3923 13.0238 25.7376 12.2667 24.9838L11.7566 24.4101C11.5929 24.2105 11.4073 23.9466 11.2402 23.7149C10.9315 23.2413 10.6772 22.7744 10.4674 22.2704C9.62874 20.273 9.58654 18.0146 10.3026 16.0797C10.653 15.11 11.1783 14.219 11.8241 13.4563L12.3348 12.9118L12.3669 12.878L12.4411 12.806L12.5019 12.7537L12.6229 12.6491L12.867 12.4387C13.0712 12.2817 13.3063 12.113 13.5263 11.9657C13.7462 11.8425 13.9599 11.7098 14.1861 11.6018C15.9939 10.7243 18.0847 10.7007 19.7969 11.4122C20.6541 11.7637 21.4169 12.2885 22.035 12.9163L22.0946 12.9742L22.125 13.0029C22.1222 13.0006 22.2589 13.1514 22.2104 13.1002L22.2971 13.2139L22.4709 13.4394C22.5862 13.5992 22.7004 13.719 22.8157 13.9091C22.9316 14.12 23.0429 14.3332 23.1475 14.5475L23.3028 14.8658C23.3421 14.9716 23.3636 15.0768 23.3956 15.1814C23.912 16.8435 23.6021 18.6143 22.724 19.8871C22.4951 20.1971 22.2284 20.4727 21.9855 20.7528C21.9557 20.7804 22.0204 20.7264 21.913 20.822L21.8882 20.8406L21.8381 20.8766L21.7414 20.9503L21.5478 21.0965C21.4196 21.1933 21.306 21.2911 21.1085 21.3822C20.9296 21.4711 20.7525 21.5588 20.5764 21.646C20.4004 21.7315 20.2254 21.7518 20.0522 21.8052C19.7102 21.9194 19.3575 21.9262 19.0155 21.9447C17.625 21.9806 16.4224 21.2877 15.6968 20.3736C15.6186 20.2679 15.5422 20.174 15.4685 20.0592C15.4016 19.9231 15.3335 19.7881 15.2665 19.6537C15.1146 19.3865 15.1006 19.1188 15.0224 18.8628C14.9942 18.6007 14.9729 18.3403 14.9869 18.0928C15.0325 17.8464 15.0235 17.5983 15.1186 17.3784C15.3841 16.4857 16.0101 15.7984 16.6254 15.5087C17.2937 15.1808 17.9096 15.2111 18.3714 15.3135C19.2927 15.6009 19.5644 16.0835 19.5819 16.0481C19.5723 16.0824 19.228 15.6381 18.3393 15.4715C17.9051 15.4181 17.3201 15.48 16.8139 15.8051C16.6856 15.8619 16.5602 15.9924 16.4269 16.1134L16.3274 16.2045C16.3291 16.2084 16.2852 16.2663 16.2666 16.2928C16.216 16.3632 16.1642 16.4334 16.1136 16.5049C15.9083 16.789 15.7597 17.1399 15.6855 17.5196C15.6197 17.7036 15.6558 17.9105 15.6327 18.108C15.6406 18.3093 15.68 18.5141 15.7182 18.7172C15.8014 18.9045 15.8341 19.1373 15.9567 19.292L16.1051 19.5513C16.1766 19.6436 16.2717 19.7403 16.3549 19.8359C16.9719 20.4569 17.9439 20.948 18.9682 20.8214C19.2202 20.7831 19.4783 20.7663 19.718 20.6577C19.8349 20.6094 19.9756 20.5863 20.074 20.5216C20.1758 20.4592 20.2765 20.4006 20.38 20.345C20.5589 20.2702 20.9065 19.9091 21.0319 19.8067C21.1916 19.5761 21.3756 19.3596 21.5275 19.1211C22.0973 18.1372 22.2306 16.8587 21.7997 15.7287C21.7755 15.6583 21.7569 15.5813 21.7283 15.5166L21.6231 15.3434C21.5556 15.228 21.4931 15.1111 21.4335 14.9907C21.3531 14.8624 21.1984 14.7105 21.0842 14.5699L20.8974 14.3545L20.804 14.2465C20.7393 14.1773 20.8625 14.3123 20.8412 14.2915L20.8175 14.2724L20.7708 14.2341C20.2887 13.801 19.7168 13.4612 19.0912 13.2497C17.8475 12.8166 16.3845 12.8987 15.1791 13.5563C15.0284 13.6367 14.8878 13.7379 14.7415 13.824L14.3731 14.108L14.1402 14.3286L14.0238 14.4382L13.9642 14.4945C13.945 14.5119 14.0271 14.4372 13.9821 14.4804L13.9602 14.5069L13.603 14.9214C13.1592 15.4996 12.8116 16.1577 12.5922 16.8619C12.1552 18.2681 12.208 19.8634 12.8403 21.2437C12.9922 21.5863 13.1919 21.9249 13.396 22.2224C13.5074 22.3597 13.5828 22.4829 13.7144 22.6398L14.1441 23.0999C14.7308 23.6472 15.3866 24.1152 16.1026 24.482C17.5465 25.1749 19.2194 25.4709 20.8332 25.2036C21.6364 25.0709 22.434 24.8431 23.1579 24.4556C23.9083 24.0534 24.4663 23.6602 25.1418 23.0099C26.327 21.7803 27.227 20.2701 27.6763 18.618C28.6297 15.3162 27.7585 11.5751 25.3921 9.08224C24.239 7.8605 22.7878 6.79686 21.2426 6.09376C19.6879 5.38166 18.0044 4.99241 16.3321 4.93C12.9858 4.79782 9.71165 5.9965 7.35871 7.97304C4.92429 10.0273 3.26323 12.6506 2.31377 15.2854C2.06063 15.9401 1.92002 16.6168 1.73271 17.2631C1.6326 17.9284 1.46443 18.5725 1.4183 19.2143C1.36995 19.855 1.27826 20.4833 1.31197 21.0964C1.31425 21.4029 1.31704 21.705 1.31875 22.0036C1.32211 22.3023 1.37331 22.5926 1.39695 22.8817C1.62867 25.1907 2.27385 27.151 2.96403 28.6911C3.72504 30.2019 4.43827 31.3286 5.01148 32.0542C5.59047 32.7703 5.89867 33.1534 5.89867 33.1534Z" fill="#AC79E2"/>
<path d="M15.0293 17.7765C15.0962 17.6274 15.171 17.484 15.2616 17.3591C15.3134 17.2871 15.3645 17.2167 15.4146 17.147C15.4332 17.12 15.4776 17.0621 15.476 17.0581L15.5749 16.9675C15.7083 16.8466 15.8342 16.7161 15.9619 16.6588C15.9917 16.6396 16.0237 16.6295 16.0547 16.6121C16.0767 16.5783 16.0896 16.5389 16.1132 16.5069C16.1644 16.4355 16.2161 16.3645 16.2662 16.2948C16.2848 16.2684 16.3287 16.2104 16.327 16.2064L16.3765 16.1609C16.1813 16.2019 15.9811 16.2599 15.7718 16.3628C15.693 16.4 15.6149 16.4444 15.5356 16.4939C15.3606 16.756 15.2144 17.0541 15.1176 17.3809C15.0647 17.5047 15.045 17.6386 15.0293 17.7765Z" fill="#814FC1"/>
<path d="M9.78655 4.25075C9.32982 4.4015 8.90907 4.63215 8.48326 4.83631C8.05016 5.02926 7.65077 5.28126 7.25423 5.52984L6.66139 5.89996L6.09047 6.33534C5.71021 6.62555 5.32325 6.91754 5.04368 7.20661C4.98348 7.26116 4.93007 7.32079 4.87101 7.37592C4.00703 8.31417 3.26565 9.33225 2.6284 10.3622C2.22172 11.0951 1.80604 11.8033 1.51691 12.557C1.17157 13.2843 0.944847 14.042 0.715337 14.7766C-0.176781 17.7358 -0.128366 20.6208 0.290665 23.0367C0.39528 23.6431 0.528601 24.2202 0.683845 24.7692C0.629288 24.4317 0.581444 24.0892 0.546025 23.7342C0.522389 23.4462 0.471188 23.1565 0.468403 22.8573C0.466689 22.5586 0.463333 22.2565 0.461119 21.95C0.427914 21.3358 0.519604 20.7086 0.568019 20.0679C0.614721 19.425 0.781748 18.7816 0.882435 18.1161C1.06974 17.4704 1.21035 16.7937 1.46464 16.139C2.33369 13.7271 3.80572 11.3291 5.91787 9.36382C6.36675 8.88009 6.84262 8.41264 7.36063 7.97504C9.71407 5.99843 12.9878 4.79982 16.334 4.932C18.0068 4.99384 19.6904 5.38367 21.2446 6.09576C22.7897 6.79886 24.2409 7.8625 25.394 9.08425C27.7604 11.5777 28.6317 15.3183 27.6783 18.6201C27.2288 20.2721 26.3294 21.7823 25.1437 23.0119C24.9913 23.1582 24.8473 23.2876 24.7044 23.4096C24.5711 23.5654 24.4344 23.7173 24.2915 23.8646C23.6166 24.5138 23.0586 24.9081 22.3088 25.3103C21.5837 25.6978 20.7867 25.9256 19.984 26.0573C18.3691 26.3245 16.6963 26.0286 15.2524 25.3368C14.5364 24.97 13.8805 24.5009 13.2943 23.9547L12.8646 23.4946C12.733 23.3366 12.6576 23.2145 12.5462 23.0761C12.3427 22.7797 12.1418 22.44 11.991 22.0974C11.3582 20.7188 11.3048 19.1236 11.743 17.7168C11.9618 17.0126 12.3094 16.3539 12.7538 15.7757L13.1098 15.3611L13.1329 15.3341C13.1767 15.2908 13.0952 15.3656 13.1143 15.3482L13.1734 15.2925L13.2898 15.1828L13.5227 14.9623L13.6701 14.8493L13.9626 14.5089L13.9845 14.4825C14.0295 14.4392 13.9474 14.514 13.9665 14.4966L14.0261 14.4403L14.1426 14.3306L14.3755 14.1101L14.7439 13.826C14.8907 13.74 15.0313 13.6387 15.1815 13.5583C16.3874 12.9008 17.8499 12.8187 19.0936 13.2518C19.719 13.4627 20.2911 13.8025 20.7732 14.2362L20.8199 14.2744L20.8435 14.2936C20.8643 14.3143 20.7411 14.18 20.8064 14.2486L20.8998 14.3565L21.0865 14.572C21.2007 14.7126 21.356 14.8645 21.4359 14.9927C21.4949 15.1137 21.5579 15.2307 21.6255 15.3454L21.7306 15.5187C21.7593 15.5834 21.7779 15.6604 21.802 15.7308C22.2329 16.8608 22.099 18.1393 21.5298 19.1231C21.3779 19.3616 21.194 19.5782 21.0343 19.8088C20.9201 19.9011 20.6287 20.1986 20.4408 20.31C20.3525 20.4264 20.2653 20.5417 20.1816 20.6615C20.0561 20.7628 19.709 21.125 19.5302 21.1998C19.4268 21.2549 19.3261 21.3128 19.2248 21.3764C19.1258 21.4399 18.9852 21.4641 18.8676 21.5125C18.628 21.621 18.3698 21.6368 18.1184 21.675C17.8973 21.7026 17.6802 21.6969 17.4665 21.6705C17.9429 21.855 18.4632 21.9607 19.0173 21.9462C19.3587 21.9276 19.7114 21.9209 20.0539 21.8067C20.2272 21.7527 20.4016 21.733 20.5782 21.6475C20.7542 21.5609 20.9314 21.4726 21.1103 21.3837C21.3083 21.2926 21.4219 21.1947 21.5496 21.098L21.63 21.0378C21.7121 20.9399 21.7976 20.8443 21.8736 20.7414C22.7522 19.4668 23.0616 17.6972 22.5458 16.0351C22.5131 15.9305 22.4924 15.8253 22.4524 15.7201L22.2971 15.4012C22.1937 15.1869 22.0817 14.9737 21.9664 14.7634C21.8499 14.5727 21.7369 14.4529 21.621 14.2943L21.4463 14.0678L21.3608 13.9542C21.4081 14.0054 21.2714 13.8547 21.2742 13.8575L21.2443 13.8288L21.1853 13.7708C20.5665 13.1425 19.8032 12.6189 18.9466 12.2668C17.2344 11.5552 15.1442 11.5794 13.3358 12.4558C13.1102 12.5643 12.8965 12.6971 12.6755 12.8197C12.4556 12.9671 12.221 13.1358 12.0168 13.2927L11.8317 13.4524L11.8261 13.4586C11.1803 14.2208 10.655 15.1118 10.3046 16.0821C9.58853 18.0171 9.63066 20.276 10.4694 22.2728C10.6792 22.7768 10.9334 23.2442 11.2422 23.7173C11.4093 23.949 11.5949 24.2128 11.7586 24.4125L12.2687 24.9862C13.0258 25.7399 13.8954 26.3947 14.8511 26.9155C16.7765 27.9263 19.0529 28.3622 21.2578 28.0107C22.3553 27.8437 23.4487 27.5315 24.4505 27.0145C25.2762 26.6056 26.1267 26.0015 26.8129 25.394C28.1201 23.9276 29.1281 22.1676 29.6569 20.2602C30.8696 15.9983 29.6428 11.1411 26.6465 8.03624C23.6934 4.88351 19.5473 3.23824 15.5424 3.20389C13.5405 3.18433 11.5696 3.53923 9.78655 4.25075Z" fill="#814FC1"/>
<path d="M30.1022 2.84766C30.1022 2.84766 30.451 3.19299 31.1057 3.84046C31.7447 4.49522 32.6362 5.55157 33.5502 7.03711C34.4058 8.55241 35.2894 10.529 35.7102 12.9652C36.1303 15.3805 36.1776 18.2655 35.2844 21.2253C35.0554 21.9605 34.8288 22.717 34.4828 23.4443C34.1936 24.198 33.7785 24.9067 33.3719 25.6391C32.495 27.0566 31.4273 28.4549 30.1044 29.6468C29.8242 29.936 29.4373 30.2279 29.0576 30.5181L28.4872 30.9541L27.8938 31.323C27.4973 31.5711 27.0985 31.8242 26.6654 32.016C26.2379 32.2201 25.8177 32.4508 25.3615 32.6015C23.5784 33.3125 21.608 33.668 19.6061 33.6483C15.6012 33.6141 11.4534 31.9699 8.50374 28.8154C5.50811 25.7116 4.28129 20.854 5.49461 16.5932C6.08467 14.4597 7.27485 12.5061 8.81551 10.9464C9.54053 10.2338 10.5722 9.47217 11.552 8.9873C12.5538 8.46922 13.6461 8.15816 14.7452 7.98999C16.949 7.63844 19.226 8.07547 21.1513 9.0857C22.1076 9.60713 22.9766 10.2613 23.7332 11.0145L24.2439 11.5887C24.4081 11.7878 24.5926 12.0517 24.7602 12.2834C25.0696 12.7576 25.3233 13.2244 25.5331 13.7279C26.3712 15.7253 26.4139 17.9842 25.6968 19.9203C25.3469 20.8895 24.8221 21.7793 24.1753 22.5426L23.6657 23.0865L23.633 23.1208L23.5593 23.1934L23.4986 23.2451L23.3776 23.3509L23.1335 23.5607C22.9293 23.7176 22.6941 23.887 22.4742 24.0343C22.2537 24.1575 22.0405 24.2902 21.8139 24.3976C20.0066 25.2745 17.9159 25.2987 16.2042 24.5866C15.3475 24.2351 14.5831 23.7109 13.9655 23.0825L13.9059 23.0252L13.8766 22.9965C13.8788 22.9988 13.7416 22.848 13.79 22.8986L13.7033 22.7855L13.5295 22.5594C13.4131 22.4013 13.3 22.2804 13.1847 22.0903C13.0688 21.8793 12.9575 21.6662 12.8523 21.453L12.697 21.1335C12.6588 21.0277 12.6363 20.9237 12.6048 20.8179C12.089 19.1558 12.3989 17.385 13.2764 16.1122C13.5048 15.8034 13.772 15.526 14.0144 15.2465C14.0453 15.2183 13.9796 15.2729 14.0892 15.1767L14.1123 15.1581L14.1618 15.1216L14.2591 15.0485L14.4532 14.9022C14.582 14.806 14.6962 14.7076 14.8925 14.6165C15.0708 14.5282 15.2497 14.4399 15.4252 14.3538C15.6007 14.2683 15.7756 14.248 15.9483 14.194C16.2903 14.0799 16.6436 14.0736 16.9867 14.0546C18.376 14.0192 19.5781 14.7116 20.3042 15.625C20.3818 15.7313 20.4589 15.8253 20.532 15.9394C20.5995 16.0761 20.667 16.2116 20.7345 16.345C20.8864 16.6122 20.9005 16.8805 20.9787 17.1364C21.0074 17.398 21.0282 17.6584 21.0141 17.9065C20.968 18.1528 20.977 18.4009 20.8819 18.6209C20.6164 19.5141 19.9909 20.2009 19.3756 20.4906C18.7074 20.8179 18.092 20.7881 17.6291 20.6852C16.7083 20.3983 16.436 19.9151 16.4186 19.95C16.4288 19.9157 16.7735 20.3606 17.6617 20.5277C18.096 20.5817 18.6809 20.5187 19.1866 20.1947C19.3154 20.1362 19.4408 20.0057 19.5741 19.8848L19.6725 19.7948C19.6714 19.7903 19.7153 19.7335 19.7344 19.7059C19.7844 19.6356 19.8356 19.5665 19.8874 19.4938C20.0927 19.2092 20.2401 18.8588 20.3149 18.4797C20.3801 18.2952 20.3441 18.0888 20.3677 17.8908C20.3593 17.69 20.3204 17.4841 20.2822 17.2816C20.199 17.0943 20.1663 16.8608 20.0431 16.7067L19.8952 16.4463C19.8238 16.3546 19.7282 16.2579 19.6455 16.1622C19.0284 15.5413 18.0559 15.0502 17.0322 15.1774C16.7802 15.2156 16.522 15.2319 16.2835 15.341C16.1648 15.3894 16.0248 15.4124 15.9257 15.4771C15.8239 15.5407 15.7244 15.5986 15.6198 15.6537C15.4414 15.728 15.0938 16.0903 14.9689 16.1914C14.8092 16.4232 14.6252 16.6392 14.4729 16.8777C13.9031 17.8615 13.7698 19.1394 14.2006 20.2701C14.2259 20.3393 14.2434 20.4163 14.2732 20.481L14.3767 20.6548C14.4447 20.7701 14.5071 20.8877 14.5663 21.0086C14.6472 21.1363 14.8014 21.2888 14.9156 21.4294L15.1029 21.6437L15.1968 21.7522C15.2609 21.8214 15.1383 21.6875 15.1597 21.7072L15.1822 21.727L15.2294 21.7652C15.7109 22.1983 16.2841 22.5375 16.909 22.7496C18.1527 23.1827 19.6151 23.1 20.8205 22.4419C20.9718 22.3615 21.1119 22.2619 21.2587 22.1747L21.6271 21.8901L21.8599 21.669L21.9764 21.5593L22.036 21.5042C22.0552 21.4856 21.9736 21.5604 22.018 21.5171L22.04 21.4907L22.3966 21.0767C22.841 20.4979 23.188 19.8398 23.408 19.1356C23.8439 17.7294 23.7916 16.1342 23.1599 14.7544C23.0086 14.4118 22.8083 14.0732 22.6042 13.7757C22.4922 13.6373 22.4169 13.5152 22.2858 13.3566L21.8561 12.8971C21.2694 12.3504 20.6136 11.8824 19.8975 11.5146C18.4531 10.8216 16.7808 10.5268 15.1659 10.794C14.3638 10.9262 13.5662 11.1534 12.8411 11.5415C12.0919 11.9431 11.5339 12.3375 10.8584 12.9872C9.67264 14.2179 8.77209 15.7281 8.32271 17.3802C7.3704 20.6815 8.24116 24.4225 10.6075 26.9149C11.7601 28.1377 13.2113 29.2009 14.7564 29.904C16.3117 30.6161 17.9946 31.0048 19.6675 31.0672C23.0143 31.1988 26.2879 30.0007 28.6408 28.0241C31.0764 25.9699 32.7357 23.3465 33.6858 20.7118C33.9384 20.0582 34.079 19.3804 34.2668 18.7341C34.367 18.0692 34.5341 17.4252 34.5813 16.7823C34.6296 16.1416 34.7207 15.5139 34.6882 14.9008C34.6854 14.5942 34.6819 14.2916 34.6809 13.9935C34.6786 13.6948 34.6269 13.4046 34.6027 13.116C34.371 10.8076 33.7263 8.84734 33.0356 7.30611C32.274 5.7958 31.5613 4.6686 30.9881 3.94358C30.4099 3.23013 30.1022 2.84766 30.1022 2.84766Z" fill="#22D0FF"/>
<path d="M31.2412 28.4966C32.0557 27.5938 32.7638 26.6235 33.3724 25.6391C33.7791 24.9062 34.1942 24.198 34.4834 23.4443C34.8293 22.717 35.056 21.9599 35.2849 21.2253C35.974 18.9422 36.0994 16.7069 35.9301 14.6948C35.907 14.9637 35.8795 15.2337 35.8593 15.5071C35.812 16.15 35.6444 16.794 35.5443 17.4589C35.3564 18.1052 35.2158 18.7824 34.9632 19.4366C34.0711 21.9104 32.544 24.3696 30.3447 26.3619C29.825 26.9464 29.2585 27.5044 28.6409 28.0264C26.2875 30.003 23.0144 31.2016 19.6675 31.0694C17.9941 31.007 16.3112 30.6177 14.7565 29.9062C13.2114 29.2031 11.7602 28.1395 10.6076 26.9172C8.24069 24.4242 7.36992 20.6837 8.32224 17.3818C8.77169 15.7293 9.67166 14.2195 10.8579 12.9888C11.0925 12.7638 11.3119 12.5771 11.5295 12.4027C11.7225 12.1642 11.9233 11.9313 12.1353 11.7108C12.8108 11.0617 13.3688 10.6674 14.1192 10.2652C14.8431 9.8782 15.6407 9.65041 16.4439 9.51766C18.0588 9.25044 19.7305 9.54579 21.1761 10.2382C21.8911 10.6061 22.5469 11.074 23.133 11.6207L23.5628 12.0803C23.6944 12.2383 23.7692 12.3604 23.8811 12.4993C24.0847 12.7963 24.2867 13.1355 24.4374 13.4775C25.0685 14.8578 25.1225 16.4524 24.6849 17.8592C24.4661 18.5635 24.1191 19.2216 23.6741 19.7993L23.3169 20.2144L23.2956 20.2408C23.2512 20.2836 23.3321 20.2087 23.3136 20.2267L23.2534 20.283L23.138 20.3927L22.904 20.6138L22.5362 20.8973C22.5278 20.9018 22.5204 20.9074 22.512 20.9113C22.4732 20.9665 22.4372 21.0244 22.3961 21.0784L22.0395 21.4923L22.0176 21.5187C21.9731 21.5615 22.0547 21.4867 22.0356 21.5058L21.9759 21.5609L21.8595 21.6706L21.6266 21.8917L21.2582 22.1763C21.1108 22.263 20.9708 22.3631 20.82 22.4436C19.6141 23.1017 18.1522 23.1838 16.9085 22.7513C16.2836 22.5392 15.7104 22.2001 15.229 21.7669L15.1817 21.7286L15.1592 21.7089C15.1378 21.6892 15.261 21.8231 15.1963 21.7539L15.1024 21.6453L14.972 21.4946L14.9821 21.5087L15.0693 21.6217C15.0214 21.5711 15.1576 21.7218 15.1553 21.7196L15.1851 21.7483L15.2442 21.8057C15.8629 22.434 16.6262 22.9571 17.4829 23.3098C19.1945 24.0219 21.2853 23.9976 23.0936 23.1207C23.3186 23.0122 23.5341 22.8789 23.7535 22.7563C23.9464 22.6274 24.1466 22.4829 24.3317 22.3434C24.9043 21.6262 25.3773 20.8084 25.6974 19.9219C26.4145 17.9858 26.3718 15.7269 25.5337 13.7295C25.3239 13.2255 25.0702 12.7586 24.7608 12.285C24.5932 12.0533 24.4087 11.7894 24.2445 11.5903L23.7337 11.016C22.9772 10.2635 22.1082 9.6087 21.1519 9.08727C19.2265 8.07761 16.9496 7.64059 14.7458 7.99157C13.6467 8.15973 12.5544 8.47079 11.5526 8.98887C10.8276 9.3477 10.0738 9.85907 9.43594 10.39C8.21705 11.8148 7.27545 13.4989 6.77258 15.3168C5.55984 19.5783 6.78665 24.4365 9.78299 27.5397C12.7321 30.6924 16.8799 32.3383 20.8854 32.3726C22.8873 32.3912 24.8571 32.0363 26.6396 31.3258C27.0963 31.1739 27.5177 30.9444 27.944 30.7403C28.3766 30.5479 28.7754 30.2953 29.1719 30.0473L29.7653 29.6772L30.3363 29.2424C30.6601 28.9932 30.9774 28.7441 31.2412 28.4966Z" fill="#14A2F2"/>
<path d="M20.9012 18.5632L20.8529 18.6082C20.719 18.7292 20.593 18.8597 20.4653 18.9181C20.3506 18.9907 20.2313 19.0475 20.111 19.0959C20.0553 19.2157 19.9929 19.3299 19.9209 19.4362C20.1498 19.4002 20.3866 19.3395 20.6363 19.2196C20.7353 19.0329 20.8197 18.8327 20.8827 18.6211C20.8911 18.6026 20.895 18.5829 20.9012 18.5632Z" fill="#14A2F2"/>
<path d="M14.4725 16.879C14.625 16.6405 14.8088 16.424 14.9686 16.1927C15.094 16.0915 15.4411 15.7292 15.6194 15.655C15.6734 15.6269 15.724 15.5948 15.7764 15.5645C15.9226 15.3412 16.0947 15.1336 16.246 14.9148C16.372 14.813 16.7185 14.4513 16.8985 14.3765C17.0014 14.3208 17.1021 14.2629 17.2033 14.1999C17.29 14.1431 17.4092 14.1167 17.5166 14.0785C17.3434 14.0593 17.1656 14.0509 16.9862 14.0554C16.6436 14.0745 16.2904 14.0807 15.9478 14.1948C15.7752 14.2483 15.6008 14.2691 15.4247 14.3546C15.2491 14.4406 15.0703 14.529 14.892 14.6173C14.7559 14.6809 14.6603 14.7478 14.5714 14.8148C14.5663 14.8215 14.5596 14.8277 14.5551 14.835C13.6771 16.1085 13.3672 17.8792 13.8829 19.5408C13.9144 19.6465 13.9369 19.7506 13.9763 19.8563L14.1304 20.1758C14.1642 20.2439 14.203 20.3119 14.2373 20.3811C14.2261 20.344 14.2131 20.3074 14.2002 20.2714C13.7694 19.1407 13.9027 17.8628 14.4725 16.879Z" fill="#14A2F2"/>
<path d="M18 19.0553C18.5824 19.0553 19.0546 18.5831 19.0546 18.0007C19.0546 17.4182 18.5824 16.946 18 16.946C17.4175 16.946 16.9453 17.4182 16.9453 18.0007C16.9453 18.5831 17.4175 19.0553 18 19.0553Z" fill="#141160"/>
<path d="M18 16.9456C18.5822 16.9456 19.0546 17.4175 19.0546 18.0002C19.0546 18.5824 18.5821 19.0549 18 19.0549" fill="#00000A"/>
</g>
<defs>
<clipPath id="clip0_492_1271">
<rect width="36" height="36" fill="white"/>
</clipPath>
</defs>
</svg>
