<svg width="250" height="240" viewBox="0 0 250 240" fill="none" xmlns="http://www.w3.org/2000/svg">
<path d="M125.003 208.782C187.546 208.782 238.248 205.822 238.248 202.17C238.248 198.519 187.546 195.559 125.003 195.559C62.4593 195.559 11.7578 198.519 11.7578 202.17C11.7578 205.822 62.4593 208.782 125.003 208.782Z" fill="#F5F5F5"/>
<path d="M38.3203 120.828H40.5515L46.7601 157.268H44.529L38.3203 120.828Z" fill="#263238"/>
<path d="M46.5938 120.828H48.8249L55.0335 157.268H52.8024L46.5938 120.828Z" fill="#263238"/>
<path d="M54.8828 120.828H57.1081L63.3226 157.268H61.0915L54.8828 120.828Z" fill="#263238"/>
<path opacity="0.4" d="M38.3203 120.828H40.5515L46.7601 157.268H44.529L38.3203 120.828Z" fill="white"/>
<path opacity="0.4" d="M46.5938 120.828H48.8249L55.0335 157.268H52.8024L46.5938 120.828Z" fill="white"/>
<path opacity="0.4" d="M54.8828 120.828H57.1081L63.3226 157.268H61.0915L54.8828 120.828Z" fill="white"/>
<path d="M42.1756 125.038C45.7618 122.865 50.7498 122.865 55.5099 125.038C57.9163 126.089 60.7665 126.393 62.0281 124.869C64.1775 122.632 60.4044 116.002 53.1737 113.906C47.9988 112.422 42.8707 112.422 38.496 113.906C32.3983 116.002 32.2114 122.632 35.5757 124.869C37.6491 126.393 40.3358 126.101 42.1756 125.038Z" fill="#A55EEA"/>
<path opacity="0.7" d="M42.1756 125.038C45.7618 122.865 50.7498 122.865 55.5099 125.038C57.9163 126.089 60.7665 126.393 62.0281 124.869C64.1775 122.632 60.4044 116.002 53.1737 113.906C47.9988 112.422 42.8707 112.422 38.496 113.906C32.3983 116.002 32.2114 122.632 35.5757 124.869C37.6491 126.393 40.3358 126.101 42.1756 125.038Z" fill="white"/>
<path d="M77.125 160.293H42.519V156.829C42.519 156.143 42.7916 155.485 43.2768 155C43.762 154.515 44.4202 154.242 45.1064 154.242H74.5376C75.2238 154.242 75.8819 154.515 76.3672 155C76.8524 155.485 77.125 156.143 77.125 156.829V160.293Z" fill="#A55EEA"/>
<path opacity="0.7" d="M77.125 160.293H42.519V156.829C42.519 156.143 42.7916 155.485 43.2768 155C43.762 154.515 44.4202 154.242 45.1064 154.242H74.5376C75.2238 154.242 75.8819 154.515 76.3672 155C76.8524 155.485 77.125 156.143 77.125 156.829V160.293Z" fill="white"/>
<path d="M57.3828 158.207L57.5697 166.267L58.4166 202.707H61.2143L62.0612 166.267L62.2481 158.207H57.3828Z" fill="#263238"/>
<path opacity="0.4" d="M57.3828 158.207L57.5697 166.267L58.4166 202.707H61.2143L62.0612 166.267L62.2481 158.207H57.3828Z" fill="white"/>
<path opacity="0.2" d="M57.3828 158.207L57.5697 166.489H62.0612L62.2481 158.207H57.3828Z" fill="black"/>
<path d="M42.1797 202.577L44.7671 158.777H48.9958L45.3745 202.577H42.1797Z" fill="#263238"/>
<path opacity="0.4" d="M45.3745 202.582H42.1797L44.5276 162.714L44.7613 158.73H48.9899L48.6628 162.714L45.3745 202.582Z" fill="white"/>
<path opacity="0.2" d="M48.9935 158.73L48.6664 162.872H44.5312L44.7649 158.73H48.9935Z" fill="black"/>
<path d="M74.254 202.577L70.6328 158.777H74.8615L77.4489 202.577H74.254Z" fill="#263238"/>
<path opacity="0.4" d="M74.2424 202.582L70.9541 162.714L70.6328 158.73H74.8556L75.0893 162.714L77.4372 202.582H74.2424Z" fill="white"/>
<path opacity="0.2" d="M70.6328 158.73L70.9541 162.872H75.0893L74.8556 158.73H70.6328Z" fill="black"/>
<path d="M41.874 160.293H77.7416C78.3158 160.293 78.7812 159.827 78.7812 159.253V158.307C78.7812 157.733 78.3158 157.267 77.7416 157.267H41.874C41.2998 157.267 40.8343 157.733 40.8343 158.307V159.253C40.8343 159.827 41.2998 160.293 41.874 160.293Z" fill="#263238"/>
<path opacity="0.6" d="M41.874 160.293H77.7416C78.3158 160.293 78.7812 159.827 78.7812 159.253V158.307C78.7812 157.733 78.3158 157.267 77.7416 157.267H41.874C41.2998 157.267 40.8343 157.733 40.8343 158.307V159.253C40.8343 159.827 41.2998 160.293 41.874 160.293Z" fill="white"/>
<path d="M93.1377 202.446H93.9378L94.1539 201.459L96.7998 202.656H103.487C103.487 202.656 104.55 201.581 101.367 200.728C101.21 200.688 101.057 200.631 100.912 200.559C99.2178 199.759 96.8231 197.055 96.8231 197.055H93.1493C93.0375 197.223 92.938 197.398 92.8515 197.58C92.4251 198.41 91.7067 200.104 93.1377 202.446Z" fill="#263238"/>
<path d="M92.8281 197.599C93.3129 197.062 95.5148 199.433 97.1327 200.239C98.5754 200.958 100.193 201.279 100.912 200.549C99.2178 199.749 96.5428 196.273 96.5428 196.273H93.5933C93.5933 196.273 92.9975 197.255 92.8281 197.599Z" fill="#FFC2BC"/>
<path d="M96.714 196.752L93.636 182.582L88.5312 184.644L93.4491 197.19" fill="#FFC2BC"/>
<path d="M84.8664 114.281C84.8664 114.281 88.9549 138.993 89.6383 151.738C90.3508 165.13 94.6437 186.571 96.9158 194.959C96.2733 195.543 93.2712 195.776 91.8519 195.064C91.8519 195.064 79.4696 170.334 81.0817 154.874C70.7261 125.717 73.226 114.807 73.226 114.807L84.8664 114.281Z" fill="#263238"/>
<g opacity="0.7">
<path d="M84.8664 114.281C84.8664 114.281 88.9549 138.993 89.6383 151.738C90.3508 165.13 94.6437 186.571 96.9158 194.959C96.2733 195.543 93.2712 195.776 91.8519 195.064C91.8519 195.064 79.4696 170.334 81.0817 154.874C70.7261 125.717 73.226 114.807 73.226 114.807L84.8664 114.281Z" fill="white"/>
</g>
<path d="M69.238 202.498H70.0381L70.2543 201.511L72.9001 202.679H79.5877C79.5877 202.679 80.6507 201.61 77.4675 200.758C77.3099 200.715 77.1572 200.657 77.0119 200.583C75.3123 199.788 72.9234 197.078 72.9234 197.078H69.2497C69.138 197.249 69.0366 197.427 68.9459 197.61C68.5254 198.457 67.8304 200.156 69.238 202.498Z" fill="#263238"/>
<path d="M68.9297 197.65C69.4145 197.107 71.6222 199.484 73.2401 200.29C74.6828 201.008 76.3006 201.324 77.019 200.594C75.3194 199.799 72.6502 196.324 72.6502 196.324H69.7007C69.7007 196.324 69.0991 197.305 68.9297 197.65Z" fill="#FFC2BC"/>
<path d="M72.7739 197.046L72.4351 181.633L66.8047 182.036L69.6549 197.14L72.7739 197.046Z" fill="#FFC2BC"/>
<path opacity="0.2" d="M78.0149 145.588C76.5372 140.729 75.48 136.524 74.7266 132.914C75.4742 130.093 76.5313 127.658 77.9681 126.227C77.9681 126.227 80.0299 134.088 78.0149 145.588Z" fill="black"/>
<path d="M80.4266 112.984C80.4266 112.984 77.039 139.203 75.0999 151.819C73.0556 165.072 72.7986 186.332 73.3068 194.999C72.565 195.431 69.8608 195.951 68.4006 195.496C68.4006 195.496 61.4911 168.693 66.0643 153.127C61.8882 122.47 67.9334 114.959 67.9334 114.959L80.4266 112.984Z" fill="#263238"/>
<g opacity="0.7">
<path d="M80.4344 112.988C80.4344 112.988 77.0468 139.207 75.1077 151.823C73.0634 165.076 72.8065 186.336 73.3146 195.003C72.5728 195.435 69.8686 195.955 68.4084 195.5C68.4084 195.5 61.4989 168.697 66.0721 153.131C61.8961 122.474 67.9412 114.962 67.9412 114.962L80.4344 112.988Z" fill="white"/>
</g>
<path d="M77.4297 67.3529C77.4297 67.3529 80.6596 66.9382 82.1548 69.8585C83.65 72.7789 81.746 77.1477 81.746 77.1477C81.746 77.1477 79.6959 80.3601 81.7985 82.9884C83.65 85.3246 81.4773 87.0769 77.7101 87.9822C73.9428 88.8875 66.7763 88.2041 64.9248 86.0723C63.0733 83.9404 66.274 81.902 65.8768 77.8077C65.4797 73.7134 65.357 69.841 69.6265 67.6332C73.0901 65.846 75.8702 66.3074 77.4297 67.3529Z" fill="#263238"/>
<path d="M101.336 101.733L104.11 98.3281L106.341 101.908C106.341 101.908 103.228 104.683 102.189 103.9L101.336 101.733Z" fill="#EEC1BB"/>
<path d="M108.034 98.1797L108.94 101.071L106.341 101.912L104.109 98.3374L108.034 98.1797Z" fill="#EEC1BB"/>
<path d="M84.1953 97.6025L84.2245 97.6959C84.2224 97.7231 84.2224 97.7505 84.2245 97.7777C84.2888 97.9821 84.3997 98.3618 84.5691 98.8349C84.6158 98.9809 84.6743 99.1327 84.7268 99.3021C84.7677 99.4131 84.8086 99.5357 84.8553 99.6525C85.0539 100.178 85.2875 100.774 85.5679 101.405C85.673 101.644 85.784 101.895 85.9066 102.141C86.0293 102.386 86.1286 102.59 86.2454 102.812L86.6075 103.484C86.6075 103.484 86.6075 103.484 86.6075 103.519C86.6075 103.554 86.7185 103.712 86.7827 103.811C86.847 103.91 86.8995 104.016 86.958 104.115L87.1157 104.36C87.2033 104.5 87.3026 104.635 87.396 104.775L87.4661 104.886C87.6238 105.108 87.7873 105.324 87.945 105.522C88.1027 105.721 88.202 105.838 88.3364 105.978C88.4707 106.118 88.5174 106.177 88.6109 106.27C88.7043 106.363 88.862 106.527 88.9964 106.644L89.2592 106.872L89.4402 107.012C89.5279 107.076 89.6155 107.146 89.7089 107.205C89.8024 107.263 89.9367 107.351 90.0535 107.415C90.311 107.57 90.5854 107.695 90.8712 107.789C93.4995 108.665 102.804 104.489 102.804 104.489L101.694 101.364C101.694 101.364 93.1724 104.051 92.3489 103.245C92.1236 102.98 91.9277 102.693 91.7648 102.386C91.6655 102.222 91.5663 102.03 91.467 101.802L91.356 101.592C91.2859 101.457 91.2158 101.305 91.1399 101.154L90.9121 100.681C90.7194 100.272 90.5149 99.8219 90.328 99.3605L90.0769 98.7764C89.9951 98.5779 89.9075 98.3851 89.8199 98.1924L89.5629 97.6083C88.1611 94.3959 86.6426 90.8331 85.5912 89.7C85.5611 89.6641 85.5279 89.6309 85.4919 89.6007C85.3805 89.4722 85.2313 89.3823 85.0656 89.3438L84.2596 97.2871L84.1953 97.6025Z" fill="#A55EEA"/>
<path opacity="0.2" d="M84.1992 97.6029L84.2284 97.6964C84.2235 97.7234 84.2235 97.7511 84.2284 97.7781C84.2926 97.9825 84.4036 98.3622 84.573 98.8353C84.6197 98.9813 84.6781 99.1332 84.7307 99.3025C84.7716 99.4135 84.8125 99.5362 84.8592 99.653C85.0578 100.179 85.2914 100.774 85.5717 101.405C85.6769 101.645 85.7879 101.896 85.9105 102.141C86.0332 102.386 86.1324 102.591 86.2493 102.813L86.6114 103.484C86.6114 103.484 86.6114 103.484 86.6114 103.52C86.6114 103.555 86.7224 103.712 86.7866 103.812C86.8865 100.925 86.159 98.0692 84.6898 95.582C84.4586 96.1459 84.2902 96.7335 84.1875 97.3342L84.1992 97.6029Z" fill="black"/>
<path d="M67.2311 105.799C67.7859 109.344 68.0838 111.973 68.0838 111.973L67.3712 114.046L66.0396 117.919L76.1673 121.084L78.5036 115.203L80.4252 120.798L86.2659 119.046L85.2496 111.33C86.6689 95.3853 85.2496 89.4511 85.2496 89.4511C82.8666 87.9909 79.2337 88.026 79.2337 88.026C80.0747 92.4883 70.2273 87.6055 70.2273 87.6055C67.7937 87.8344 65.4079 88.425 63.1484 89.3577C64.1137 91.5161 64.8516 93.7691 65.3504 96.0803C65.8001 97.8851 66.1914 99.795 66.5185 101.641C66.7872 103.083 67.0208 104.485 67.2311 105.799Z" fill="#A55EEA"/>
<path d="M70.83 79.0977C71.5075 81.615 72.3427 86.2233 70.7074 87.8996C70.7074 87.8996 68.4237 90.1073 75.0645 89.9029C75.6486 91.2872 77.8797 93.8279 77.8797 93.8279C77.8797 93.8279 78.8902 91.0243 78.4287 90.0139C82.7041 89.6459 78.528 87.8996 78.528 87.8996C75.6719 87.2337 75.6077 85.1486 75.9348 83.227L70.83 79.0977Z" fill="#EEC1BB"/>
<path opacity="0.2" d="M72.8996 80.7656L75.925 83.1895C75.8353 83.6475 75.7884 84.1129 75.7849 84.5796C74.6985 84.4219 73.139 83.2479 72.9463 82.1265C72.8491 81.6794 72.8333 81.2184 72.8996 80.7656Z" fill="black"/>
<path d="M68.6803 74.0433C69.4454 78.1318 69.6791 79.8372 71.9978 81.788C75.5022 84.7084 80.2741 83.1664 80.7588 79.0254C81.1677 75.299 79.8535 69.2773 75.6658 67.9281C74.7742 67.6017 73.8113 67.5211 72.878 67.6948C71.9446 67.8686 71.0752 68.2902 70.3608 68.9156C69.6465 69.5409 69.1135 70.3469 68.8179 71.2491C68.5222 72.1513 68.4747 73.1164 68.6803 74.0433Z" fill="#EEC1BB"/>
<path d="M72.1723 71.1127C69.9295 74.0038 74.5378 77.333 69.9295 77.1403C65.3212 76.9475 67.196 70.441 69.9295 68.9633C72.6629 67.4856 72.1723 71.1127 72.1723 71.1127Z" fill="#263238"/>
<path d="M75.1045 74.701C75.1512 75.0456 75.3732 75.2851 75.5893 75.2851C75.8054 75.2851 75.9514 74.9755 75.8988 74.6309C75.8463 74.2863 75.6302 74.0469 75.4141 74.0469C75.198 74.0469 75.0519 74.3798 75.1045 74.701Z" fill="#263238"/>
<path d="M79.2593 74.4823C79.3118 74.8269 79.5279 75.0663 79.7499 75.0663C79.9718 75.0663 80.1062 74.7568 80.0594 74.4122C80.0127 74.0676 79.7908 73.8281 79.5688 73.8281C79.3469 73.8281 79.2125 74.1202 79.2593 74.4823Z" fill="#263238"/>
<path d="M79.4766 73.8565L80.2534 73.5586C80.2534 73.5586 79.9263 74.2361 79.4766 73.8565Z" fill="#263238"/>
<path d="M78.1797 75.125C78.5959 75.8884 79.1061 76.5968 79.6983 77.2335C79.5404 77.3714 79.3531 77.4716 79.1507 77.5262C78.9482 77.5809 78.736 77.5886 78.5301 77.5489L78.1797 75.125Z" fill="#D4827D"/>
<path d="M76.7806 78.9627C76.975 78.9782 77.1703 78.9782 77.3647 78.9627C77.3776 78.9613 77.39 78.9572 77.4013 78.9508C77.4125 78.9443 77.4223 78.9356 77.43 78.9252C77.4377 78.9147 77.4431 78.9028 77.4459 78.8902C77.4488 78.8775 77.4489 78.8644 77.4464 78.8517C77.4435 78.8248 77.4303 78.8002 77.4097 78.7828C77.389 78.7654 77.3624 78.7566 77.3355 78.7582C76.903 78.7927 76.4684 78.7292 76.0639 78.5724C75.6594 78.4157 75.2955 78.1697 74.9992 77.8529C74.9923 77.8401 74.9826 77.8289 74.9709 77.8203C74.9591 77.8116 74.9457 77.8056 74.9314 77.8027C74.9171 77.7999 74.9023 77.8002 74.8881 77.8036C74.874 77.8071 74.8608 77.8137 74.8494 77.8228C74.8381 77.832 74.8289 77.8435 74.8225 77.8567C74.8161 77.8698 74.8127 77.8841 74.8125 77.8987C74.8123 77.9133 74.8153 77.9278 74.8214 77.941C74.8274 77.9543 74.8362 77.9661 74.8473 77.9756C75.3488 78.5306 76.0369 78.882 76.7806 78.9627Z" fill="#263238"/>
<path d="M73.9463 72.8774C74.0015 72.876 74.054 72.8529 74.0923 72.8132C74.2527 72.6272 74.4567 72.484 74.6861 72.3963C74.9154 72.3087 75.163 72.2793 75.4065 72.3109C75.4315 72.3168 75.4576 72.3173 75.4829 72.3124C75.5082 72.3075 75.5322 72.2972 75.5532 72.2823C75.5742 72.2674 75.5918 72.2481 75.6047 72.2259C75.6177 72.2036 75.6258 72.1788 75.6284 72.1532C75.6339 72.0987 75.6191 72.0441 75.5867 71.9998C75.5544 71.9556 75.5068 71.9249 75.4532 71.9137C75.1452 71.8692 74.831 71.9025 74.5392 72.0107C74.2474 72.1188 73.9873 72.2983 73.7828 72.5328C73.7466 72.5717 73.7266 72.6228 73.7266 72.6759C73.7266 72.729 73.7466 72.7801 73.7828 72.819C73.8274 72.8593 73.8862 72.8803 73.9463 72.8774Z" fill="#263238"/>
<path d="M80.1894 72.5079C80.2147 72.51 80.2402 72.507 80.2643 72.499C80.2884 72.4909 80.3106 72.4781 80.3295 72.4611C80.3666 72.4239 80.3875 72.3735 80.3875 72.321C80.3875 72.2684 80.3666 72.218 80.3295 72.1808C80.1211 71.9301 79.8579 71.7308 79.5601 71.5981C79.2624 71.4655 78.9381 71.403 78.6124 71.4157C78.5866 71.4184 78.5617 71.4265 78.5392 71.4394C78.5167 71.4523 78.4971 71.4698 78.4817 71.4906C78.4664 71.5115 78.4555 71.5354 78.4498 71.5607C78.4442 71.586 78.4438 71.6122 78.4488 71.6376C78.4588 71.6907 78.4883 71.7382 78.5316 71.7707C78.5748 71.8031 78.6287 71.8181 78.6825 71.8128C78.9409 71.8075 79.1972 71.861 79.432 71.9692C79.6667 72.0775 79.8738 72.2377 80.0375 72.4378C80.0783 72.4782 80.1321 72.503 80.1894 72.5079Z" fill="#263238"/>
<path d="M75.3516 74.1143L76.1225 73.8164C76.1225 73.8164 75.7721 74.4764 75.3516 74.1143Z" fill="#263238"/>
<path d="M68.2833 77.967C68.4539 78.3272 68.6979 78.6479 68.9996 78.9084C69.3013 79.1689 69.6542 79.3635 70.0355 79.4797C70.9817 79.7308 71.3905 78.6445 71.0751 77.564C70.7948 76.5886 69.9595 75.2861 69.0367 75.5197C68.1139 75.7533 67.8102 77.0383 68.2833 77.967Z" fill="#EEC1BB"/>
<path d="M77.4323 69.5804C77.4323 69.5804 76.9476 73.4762 69.9154 73.8033L69.1094 69.5804C69.1094 69.5804 71.2354 65.9651 76.1182 66.9405C81.001 67.9158 80.7907 72.8804 80.7907 72.8804C80.531 72.1044 80.0913 71.4009 79.5076 70.8274C78.9239 70.2538 78.2128 69.8265 77.4323 69.5804Z" fill="#263238"/>
<path d="M76.5234 86.8867C76.5234 86.8867 78.7137 88.417 78.4509 90.0173L82.1889 90.9402C82.1889 90.9402 79.9519 87.1554 76.5234 86.8867Z" fill="#A55EEA"/>
<path d="M69.8289 91.6007L75.0855 89.9011C75.0855 89.9011 72.317 87.67 71.4526 86.4609L69.7004 87.7576C69.6595 87.8569 69.1455 89.1301 69.8289 91.6007Z" fill="#A55EEA"/>
<path opacity="0.6" d="M76.5234 86.8867C76.5234 86.8867 78.7137 88.417 78.4509 90.0173L82.1889 90.9402C82.1889 90.9402 79.9519 87.1554 76.5234 86.8867Z" fill="white"/>
<path opacity="0.6" d="M69.8289 91.6007L75.0855 89.9011C75.0855 89.9011 72.317 87.67 71.4526 86.4609L69.7004 87.7576C69.6595 87.8569 69.1455 89.1301 69.8289 91.6007Z" fill="white"/>
<path opacity="0.2" d="M68.0871 111.976L67.3746 114.05C68.8815 114.05 70.6453 113.968 72.3216 113.875C75.5574 113.688 78.4602 113.437 78.4602 113.437L78.2207 109.395L74.9791 109.442L74.8214 109.138C74.1769 108.991 73.5443 108.796 72.929 108.554C71.0439 107.776 69.2014 106.899 67.4096 105.925L67.2344 105.832C67.7659 109.348 68.0871 111.976 68.0871 111.976Z" fill="black"/>
<path d="M74.1085 109.748L78.4598 109.164L77.6129 113.293C77.6129 113.293 73.4427 113.159 73.2266 111.874L74.1085 109.748Z" fill="#EEC1BB"/>
<path d="M81.4117 111.765L80.0741 114.481L77.6094 113.307L78.4563 109.172L81.4117 111.765Z" fill="#EEC1BB"/>
<path opacity="0.2" d="M65.3359 96.0697C65.7857 97.8744 66.177 99.7843 66.5041 101.63C67.3627 98.8966 66.6326 95.2578 66.6326 95.2578C66.126 95.3859 65.6724 95.6699 65.3359 96.0697Z" fill="black"/>
<path d="M63.1268 89.3555C61.1818 91.0726 57.7183 106.585 58.8456 108.56C59.9728 110.534 73.126 112.771 73.126 112.771L74.3935 109.43C74.3935 109.43 63.9737 106.556 63.9737 105.417C63.9737 104.278 66.0763 99.3781 66.0763 99.3781C66.0763 99.3781 67.4839 95.2896 65.8836 91.6041C64.9257 89.3788 63.1268 89.3555 63.1268 89.3555Z" fill="#A55EEA"/>
<path d="M74.3922 109.429L72.9262 108.523L71.2266 112.77H73.1248L74.3922 109.429Z" fill="#A55EEA"/>
<path d="M101.675 101.383L100.156 101.628L101.33 105.804L102.785 104.508L101.675 101.383Z" fill="#A55EEA"/>
<path opacity="0.6" d="M74.3922 109.429L72.9262 108.523L71.2266 112.77H73.1248L74.3922 109.429Z" fill="white"/>
<path opacity="0.6" d="M101.675 101.383L100.156 101.628L101.33 105.804L102.785 104.508L101.675 101.383Z" fill="white"/>
<path d="M174.385 120.828H172.154L165.945 157.268H168.176L174.385 120.828Z" fill="#263238"/>
<path d="M166.104 120.828H163.873L157.664 157.268H159.895L166.104 120.828Z" fill="#263238"/>
<path d="M157.823 120.828H155.591L149.383 157.268H151.614L157.823 120.828Z" fill="#263238"/>
<path opacity="0.4" d="M174.385 120.828H172.154L165.945 157.268H168.176L174.385 120.828Z" fill="white"/>
<path opacity="0.4" d="M166.104 120.828H163.873L157.664 157.268H159.895L166.104 120.828Z" fill="white"/>
<path opacity="0.4" d="M157.823 120.828H155.591L149.383 157.268H151.614L157.823 120.828Z" fill="white"/>
<path d="M170.566 125.038C166.974 122.865 161.992 122.865 157.226 125.038C154.82 126.089 151.969 126.393 150.708 124.869C148.564 122.632 152.332 116.002 159.562 113.906C164.743 112.422 169.865 112.422 174.24 113.906C180.338 116.002 180.525 122.632 177.16 124.869C175.058 126.393 172.377 126.101 170.566 125.038Z" fill="#A55EEA"/>
<path opacity="0.7" d="M170.566 125.038C166.974 122.865 161.992 122.865 157.226 125.038C154.82 126.089 151.969 126.393 150.708 124.869C148.564 122.632 152.332 116.002 159.562 113.906C164.743 112.422 169.865 112.422 174.24 113.906C180.338 116.002 180.525 122.632 177.16 124.869C175.058 126.393 172.377 126.101 170.566 125.038Z" fill="white"/>
<path d="M138.166 154.242H167.638C168.324 154.242 168.982 154.515 169.467 155C169.952 155.485 170.225 156.143 170.225 156.83V160.293H135.578V156.83C135.578 156.143 135.851 155.485 136.336 155C136.821 154.515 137.479 154.242 138.166 154.242Z" fill="#A55EEA"/>
<path opacity="0.7" d="M138.166 154.242H167.638C168.324 154.242 168.982 154.515 169.467 155C169.952 155.485 170.225 156.143 170.225 156.83V160.293H135.578V156.83C135.578 156.143 135.851 155.485 136.336 155C136.821 154.515 137.479 154.242 138.166 154.242Z" fill="white"/>
<path d="M155.32 158.207L155.139 166.267L154.287 202.707H151.489L150.648 166.267L150.461 158.207H155.32Z" fill="#263238"/>
<path opacity="0.4" d="M155.32 158.207L155.139 166.267L154.287 202.707H151.489L150.648 166.267L150.461 158.207H155.32Z" fill="white"/>
<path opacity="0.2" d="M155.32 158.207L155.139 166.489H150.648L150.461 158.207H155.32Z" fill="black"/>
<path d="M170.521 202.577L167.934 158.777H163.711L167.326 202.577H170.521Z" fill="#263238"/>
<path opacity="0.4" d="M167.32 202.582H170.515L168.173 162.714L167.94 158.73H163.711L164.038 162.714L167.32 202.582Z" fill="white"/>
<path opacity="0.2" d="M163.711 158.73L164.038 162.872H168.173L167.94 158.73H163.711Z" fill="black"/>
<path d="M138.447 202.577L142.068 158.777H137.839L135.258 202.577H138.447Z" fill="#263238"/>
<path opacity="0.4" d="M138.459 202.582L141.741 162.714L142.068 158.73H137.839L137.606 162.714L135.258 202.582H138.459Z" fill="white"/>
<path opacity="0.2" d="M142.064 158.73L141.737 162.872H137.602L137.835 158.73H142.064Z" fill="black"/>
<path d="M170.829 157.27H134.962C134.387 157.27 133.922 157.735 133.922 158.309V159.255C133.922 159.83 134.387 160.295 134.962 160.295H170.829C171.403 160.295 171.869 159.83 171.869 159.255V158.309C171.869 157.735 171.403 157.27 170.829 157.27Z" fill="#263238"/>
<path opacity="0.6" d="M170.829 157.27H134.962C134.387 157.27 133.922 157.735 133.922 158.309V159.255C133.922 159.83 134.387 160.295 134.962 160.295H170.829C171.403 160.295 171.869 159.83 171.869 159.255V158.309C171.869 157.735 171.403 157.27 170.829 157.27Z" fill="white"/>
<path d="M126.117 132.121V133.628C126.117 134.019 125.661 134.177 125.282 134.177H95.1672C94.7817 134.177 94.3203 134.019 94.3203 133.628V132.121H126.117Z" fill="#263238"/>
<path opacity="0.2" d="M126.117 132.121V133.628C126.117 134.019 125.661 134.177 125.282 134.177H95.1672C94.7817 134.177 94.3203 134.019 94.3203 133.628V132.121H126.117Z" fill="white"/>
<path opacity="0.2" d="M126.119 132.121V133.628C126.119 134.019 125.663 134.177 125.283 134.177H105.425C105.04 134.177 104.578 134.019 104.578 133.628V132.121H126.119Z" fill="black"/>
<path d="M131.156 116.478L127.57 132.739C127.505 133 127.354 133.232 127.143 133.399C126.932 133.566 126.671 133.658 126.402 133.661H106.824C106.702 133.658 106.583 133.626 106.476 133.569C106.368 133.511 106.276 133.43 106.204 133.332C106.133 133.233 106.086 133.119 106.066 132.999C106.045 132.879 106.053 132.756 106.088 132.639L109.669 116.501C109.743 116.255 109.899 116.042 110.112 115.897C110.324 115.753 110.58 115.685 110.837 115.707H130.415C130.94 115.707 131.273 115.947 131.156 116.478Z" fill="#263238"/>
<path opacity="0.2" d="M131.155 116.478L127.568 132.739C127.503 133 127.353 133.232 127.141 133.399C126.93 133.566 126.67 133.658 126.4 133.661H107.482C107.36 133.659 107.24 133.628 107.132 133.571C107.024 133.514 106.931 133.433 106.86 133.334C106.788 133.235 106.741 133.12 106.721 133C106.702 132.879 106.71 132.756 106.746 132.639L110.327 116.501C110.401 116.255 110.557 116.042 110.77 115.897C110.983 115.753 111.239 115.685 111.495 115.707H130.407C130.939 115.707 131.271 115.947 131.155 116.478Z" fill="white"/>
<path opacity="0.2" d="M121.498 124.75C121.498 126.14 120.003 127.267 118.911 127.267C117.819 127.267 117.159 126.14 117.48 124.75C117.801 123.36 118.882 122.267 119.951 122.227C119.641 123.622 120.307 124.75 121.399 124.75H121.498Z" fill="black"/>
<path d="M129.209 202.708L129.635 137.777H125.43L125.85 202.708H129.209Z" fill="#263238"/>
<path opacity="0.4" d="M125.848 202.705H129.207L129.545 150.693L129.633 137.902H125.422L125.504 150.693L125.848 202.705Z" fill="white"/>
<path opacity="0.2" d="M125.422 137.902L125.504 150.839H129.545L129.633 137.902H125.422Z" fill="black"/>
<path d="M96.4912 202.708L101.152 137.777H96.9468L93.1328 202.708H96.4912Z" fill="#263238"/>
<path opacity="0.5" d="M96.4912 202.705L100.872 141.71L101.152 137.902H96.9468L96.719 141.71L93.1328 202.705H96.4912Z" fill="white"/>
<path opacity="0.2" d="M96.7188 141.524H100.871L101.152 137.902H96.9465L96.7188 141.524Z" fill="black"/>
<path d="M161.925 202.708L158.112 137.777H153.906L158.573 202.708H161.925Z" fill="#263238"/>
<path opacity="0.5" d="M158.573 202.705H161.925L158.339 141.71L158.112 137.902H153.906L154.187 141.71L158.573 202.705Z" fill="white"/>
<path opacity="0.2" d="M158.112 137.902H153.906L154.187 141.524H158.339L158.112 137.902Z" fill="black"/>
<path d="M160.316 139.762H94.7311C94.4336 139.762 94.1484 139.644 93.9381 139.433C93.7278 139.223 93.6096 138.938 93.6096 138.64V135.79H161.438V138.64C161.437 138.788 161.408 138.933 161.352 139.069C161.296 139.206 161.213 139.329 161.109 139.433C161.005 139.537 160.881 139.62 160.745 139.676C160.609 139.733 160.463 139.762 160.316 139.762Z" fill="#263238"/>
<path opacity="0.6" d="M160.316 139.762H94.7311C94.4336 139.762 94.1484 139.644 93.9381 139.433C93.7278 139.223 93.6096 138.938 93.6096 138.64V135.79H161.438V138.64C161.437 138.788 161.408 138.933 161.352 139.069C161.296 139.206 161.213 139.329 161.109 139.433C161.005 139.537 160.881 139.62 160.745 139.676C160.609 139.733 160.463 139.762 160.316 139.762Z" fill="white"/>
<path opacity="0.2" d="M93.6155 137.777H161.438V135.792H93.6155V137.777Z" fill="black"/>
<path d="M91.6527 136.311H163.405C163.703 136.311 163.988 136.193 164.198 135.983C164.409 135.772 164.527 135.487 164.527 135.19C164.527 135.043 164.498 134.897 164.441 134.762C164.385 134.626 164.302 134.503 164.198 134.399C164.094 134.295 163.97 134.213 163.834 134.157C163.698 134.102 163.552 134.073 163.405 134.074H91.6527C91.5057 134.073 91.36 134.102 91.224 134.157C91.0879 134.213 90.9643 134.295 90.8601 134.399C90.7558 134.503 90.6732 134.626 90.6167 134.762C90.5603 134.897 90.5312 135.043 90.5313 135.19C90.5313 135.487 90.6494 135.772 90.8597 135.983C91.07 136.193 91.3552 136.311 91.6527 136.311Z" fill="#263238"/>
<path opacity="0.6" d="M91.6527 136.311H163.405C163.703 136.311 163.988 136.193 164.198 135.983C164.409 135.772 164.527 135.487 164.527 135.19C164.527 135.043 164.498 134.897 164.441 134.762C164.385 134.626 164.302 134.503 164.198 134.399C164.094 134.295 163.97 134.213 163.834 134.157C163.698 134.102 163.552 134.073 163.405 134.074H91.6527C91.5057 134.073 91.36 134.102 91.224 134.157C91.0879 134.213 90.9643 134.295 90.8601 134.399C90.7558 134.503 90.6732 134.626 90.6167 134.762C90.5603 134.897 90.5312 135.043 90.5313 135.19C90.5313 135.487 90.6494 135.772 90.8597 135.983C91.07 136.193 91.3552 136.311 91.6527 136.311Z" fill="white"/>
<path d="M200.674 80.916C202.186 87.1188 203.775 93.2515 204.231 99.6821C204.04 104.608 203.466 109.511 202.513 114.348L199.687 114.167C199.354 109.547 199.389 104.536 199.103 99.9333C198.659 96.6975 197.777 93.5435 197.023 90.2786L195.125 82.2944L200.674 80.9102V80.916Z" fill="#E4897B"/>
<path d="M202.156 122.518L197.758 121.665L198.289 117.816L203.657 118.546L202.156 122.518Z" fill="#E4897B"/>
<path d="M202.673 113.679L203.649 118.55L198.281 117.82C198.281 117.82 198.252 113.37 200.267 112.879L202.673 113.679Z" fill="#E4897B"/>
<path d="M206.723 116.576L206.39 108.37C206.368 107.952 206.187 107.559 205.884 107.27C205.581 106.981 205.179 106.819 204.761 106.816H190.287C190.212 106.815 190.138 106.83 190.069 106.86C189.999 106.889 189.937 106.933 189.886 106.988C189.835 107.043 189.796 107.108 189.771 107.179C189.747 107.25 189.738 107.326 189.744 107.401L190.118 116.6L206.723 116.576Z" fill="#263238"/>
<path d="M205.722 126.684H190.244C190.089 126.684 189.94 126.623 189.831 126.513C189.721 126.404 189.66 126.255 189.66 126.1L188.9 107.346C188.894 107.271 188.903 107.196 188.928 107.124C188.952 107.053 188.991 106.988 189.042 106.933C189.093 106.878 189.156 106.834 189.225 106.805C189.294 106.775 189.368 106.761 189.444 106.762H204.916C205.071 106.762 205.219 106.823 205.329 106.933C205.438 107.042 205.5 107.191 205.5 107.346L206.259 126.1C206.266 126.175 206.258 126.25 206.234 126.321C206.21 126.392 206.172 126.458 206.121 126.513C206.07 126.568 206.009 126.612 205.94 126.641C205.871 126.671 205.797 126.686 205.722 126.684Z" fill="#263238"/>
<path opacity="0.2" d="M205.492 107.369L206.258 126.13C206.263 126.204 206.253 126.279 206.229 126.35C206.204 126.421 206.165 126.486 206.114 126.541C206.063 126.595 206.001 126.639 205.932 126.669C205.863 126.699 205.789 126.714 205.714 126.714H190.242C190.088 126.714 189.939 126.652 189.829 126.543C189.72 126.433 189.658 126.285 189.658 126.13L188.893 107.369C188.886 107.294 188.894 107.219 188.918 107.147C188.943 107.076 188.982 107.01 189.033 106.955C189.084 106.899 189.147 106.856 189.216 106.827C189.286 106.797 189.361 106.783 189.436 106.785H204.908C205.063 106.785 205.212 106.847 205.321 106.956C205.431 107.066 205.492 107.215 205.492 107.369Z" fill="white"/>
<path d="M205.193 109.164H203.798C203.661 109.162 203.53 109.109 203.431 109.015C203.332 108.92 203.273 108.792 203.266 108.655V108.282C203.263 108.214 203.274 108.147 203.299 108.083C203.323 108.02 203.359 107.962 203.406 107.914C203.453 107.865 203.509 107.826 203.571 107.8C203.634 107.774 203.701 107.761 203.768 107.762H205.164C205.301 107.763 205.432 107.816 205.53 107.911C205.629 108.005 205.688 108.134 205.696 108.27V108.644C205.698 108.71 205.687 108.777 205.663 108.839C205.639 108.902 205.602 108.958 205.556 109.006C205.509 109.056 205.453 109.095 205.391 109.122C205.329 109.149 205.261 109.163 205.193 109.164ZM203.751 108.054C203.722 108.054 203.694 108.059 203.668 108.07C203.642 108.081 203.619 108.098 203.599 108.118C203.579 108.138 203.564 108.162 203.554 108.188C203.544 108.214 203.539 108.242 203.541 108.27V108.644C203.545 108.705 203.572 108.762 203.616 108.804C203.66 108.846 203.719 108.87 203.78 108.871H205.176C205.204 108.872 205.232 108.866 205.258 108.855C205.284 108.844 205.308 108.828 205.328 108.807C205.347 108.787 205.363 108.764 205.373 108.737C205.383 108.711 205.387 108.683 205.386 108.655V108.282C205.383 108.22 205.357 108.162 205.312 108.12C205.267 108.077 205.208 108.054 205.147 108.054H203.751Z" fill="white"/>
<path d="M205.282 109.459H203.758L203.734 108.793H205.259L205.282 109.459Z" fill="#263238"/>
<path opacity="0.2" d="M202.572 107.369L203.337 126.13C203.343 126.204 203.333 126.279 203.308 126.35C203.284 126.421 203.244 126.486 203.193 126.541C203.142 126.595 203.081 126.639 203.012 126.669C202.943 126.699 202.869 126.714 202.794 126.714H190.242C190.088 126.714 189.939 126.652 189.829 126.543C189.72 126.433 189.658 126.285 189.658 126.13L188.893 107.369C188.886 107.294 188.894 107.219 188.918 107.147C188.943 107.076 188.982 107.01 189.033 106.955C189.084 106.899 189.147 106.856 189.216 106.827C189.286 106.797 189.361 106.783 189.436 106.785H201.988C202.143 106.785 202.292 106.847 202.401 106.956C202.511 107.066 202.572 107.215 202.572 107.369Z" fill="black"/>
<path d="M180.447 61.1973C180.447 61.5186 180.266 61.7814 180.056 61.7814C179.845 61.7814 179.682 61.5186 179.688 61.1973C179.693 60.8761 179.869 60.6133 180.079 60.6133C180.289 60.6133 180.482 60.8761 180.447 61.1973Z" fill="#263238"/>
<path d="M180.302 61.7773C179.9 62.7522 179.367 63.6679 178.719 64.4991C178.936 64.6593 179.185 64.7705 179.449 64.825C179.713 64.8794 179.986 64.8758 180.249 64.8145L180.302 61.7773Z" fill="#DE5753"/>
<path d="M181.65 59.437C181.697 59.4292 181.738 59.4042 181.767 59.367C181.798 59.3266 181.811 59.2757 181.805 59.2254C181.798 59.1751 181.772 59.1295 181.732 59.0983C181.496 58.9136 181.219 58.788 180.924 58.7322C180.63 58.6763 180.326 58.6917 180.038 58.777C180.015 58.7855 179.993 58.7986 179.974 58.8156C179.956 58.8326 179.941 58.8532 179.931 58.8761C179.92 58.899 179.915 58.9238 179.914 58.9489C179.914 58.974 179.918 58.999 179.927 59.0224C179.944 59.0688 179.979 59.1065 180.024 59.1273C180.069 59.1481 180.12 59.1503 180.167 59.1333C180.395 59.0688 180.635 59.0595 180.868 59.1062C181.101 59.153 181.319 59.2543 181.504 59.402C181.524 59.4191 181.548 59.4312 181.573 59.4373C181.598 59.4434 181.625 59.4433 181.65 59.437Z" fill="#263238"/>
<path d="M190.412 64.6367C189.653 67.5045 188.73 72.8137 190.64 74.8696C190.64 74.8696 189.647 77.7899 184.244 77.4103C178.304 77.019 181.598 74.2738 181.598 74.2738C184.893 73.6898 184.969 71.3009 184.554 69.0172L190.412 64.6367Z" fill="#E4897B"/>
<path d="M191.178 60.716C190.862 64.6585 190.88 66.9831 188.841 68.9689C185.787 71.9594 180.951 70.0611 180.08 66.107C179.298 62.5442 179.946 56.6977 183.836 55.2024C184.692 54.8654 185.621 54.7533 186.533 54.8769C187.445 55.0005 188.311 55.3556 189.047 55.9084C189.783 56.4612 190.365 57.1932 190.738 58.0348C191.111 58.8764 191.262 59.7994 191.178 60.716Z" fill="#E4897B"/>
<path d="M190.581 67.157C189.15 68.3661 182.767 66.3861 183.111 61.5325C183.111 61.5325 180.401 59.2721 180.109 56.2758C179.817 53.2796 181.633 51.7902 183.894 52.0238C185.891 52.2341 186.031 53.2796 186.031 53.2796C186.031 53.2796 195.178 52.6955 193.934 56.6789C198.314 59.9905 192.363 65.6501 190.581 67.157Z" fill="#263238"/>
<path d="M184.818 62.0463C184.728 63.0286 184.318 63.9541 183.65 64.6805C182.768 65.6267 181.869 65.0192 181.729 63.8511C181.606 62.7998 181.91 61.0417 182.979 60.5277C184.047 60.0138 184.9 60.8665 184.818 62.0463Z" fill="#E4897B"/>
<path d="M191.465 74.3984L191.196 72.436C191.196 72.436 181.653 71.7818 180.298 74.3984C178.943 77.0151 189.678 76.6763 191.465 74.3984Z" fill="#A55EEA"/>
<path opacity="0.5" d="M191.465 74.3984L191.196 72.436C191.196 72.436 181.653 71.7818 180.298 74.3984C178.943 77.0151 189.678 76.6763 191.465 74.3984Z" fill="white"/>
<path d="M193.477 83.3373L193.996 84.6923L196.888 92.2268L196.993 92.4896L204.001 89.6218C204.001 89.6218 200.748 75.7853 197.746 75.207L193.477 83.3373Z" fill="#A55EEA"/>
<path opacity="0.7" d="M193.477 83.3373L193.996 84.6923L196.888 92.2268L196.993 92.4896L204.001 89.6218C204.001 89.6218 200.748 75.7853 197.746 75.207L193.477 83.3373Z" fill="white"/>
<path opacity="0.2" d="M193.992 84.6886L196.883 92.2231C199.774 85.8684 196.457 80.1445 196.457 80.1445C195.604 80.8454 194.728 82.5859 193.992 84.6886Z" fill="black"/>
<path d="M209.144 197.847C209.161 197.839 209.175 197.826 209.185 197.811C209.196 197.795 209.202 197.778 209.203 197.759C209.2 197.741 209.194 197.724 209.183 197.709C209.173 197.694 209.16 197.681 209.144 197.671C209.092 197.671 207.854 197.146 207.316 197.403C207.258 197.429 207.206 197.468 207.163 197.516C207.121 197.565 207.089 197.622 207.071 197.683C207.039 197.757 207.031 197.839 207.048 197.917C207.064 197.996 207.105 198.067 207.164 198.121C207.318 198.196 207.485 198.239 207.656 198.248C207.826 198.257 207.997 198.232 208.157 198.174C208.496 198.097 208.827 197.988 209.144 197.847ZM208.858 197.765C208.274 197.993 207.503 198.156 207.287 197.975C207.287 197.975 207.205 197.905 207.252 197.736C207.264 197.7 207.284 197.667 207.309 197.639C207.334 197.611 207.364 197.589 207.398 197.572L207.509 197.537C207.97 197.512 208.431 197.59 208.858 197.765Z" fill="#A55EEA"/>
<path d="M209.167 197.831C209.175 197.817 209.179 197.801 209.179 197.785C209.179 197.768 209.175 197.752 209.167 197.738C209.167 197.691 208.817 196.57 208.285 196.313C208.221 196.279 208.151 196.258 208.079 196.252C208.006 196.246 207.934 196.255 207.865 196.278C207.795 196.293 207.732 196.332 207.688 196.389C207.645 196.446 207.622 196.516 207.625 196.587C207.625 197.037 208.601 197.72 209.05 197.855H209.097L209.167 197.831ZM208.221 196.482C208.57 196.774 208.823 197.165 208.945 197.604C208.478 197.382 207.841 196.85 207.836 196.582C207.836 196.582 207.836 196.5 207.952 196.459H207.993C208.069 196.438 208.151 196.446 208.221 196.482Z" fill="#A55EEA"/>
<path d="M179.966 198.727C179.985 198.724 180.002 198.715 180.016 198.701C180.029 198.688 180.038 198.67 180.042 198.651C180.045 198.633 180.042 198.614 180.034 198.597C180.025 198.58 180.012 198.566 179.995 198.558C179.937 198.523 178.541 197.729 177.881 197.91C177.818 197.923 177.759 197.949 177.707 197.987C177.656 198.026 177.613 198.075 177.583 198.132C177.539 198.191 177.516 198.262 177.516 198.336C177.516 198.41 177.539 198.481 177.583 198.54C177.752 198.774 178.243 198.844 178.751 198.844C179.159 198.842 179.565 198.803 179.966 198.727ZM179.656 198.593C178.92 198.692 177.904 198.686 177.723 198.429C177.723 198.429 177.676 198.342 177.723 198.225C177.741 198.19 177.767 198.16 177.798 198.137C177.829 198.114 177.866 198.098 177.904 198.091C177.964 198.085 178.025 198.085 178.085 198.091C178.637 198.152 179.171 198.323 179.656 198.593Z" fill="#A55EEA"/>
<path d="M180.005 198.716C180.018 198.705 180.029 198.692 180.036 198.677C180.043 198.662 180.046 198.645 180.046 198.628C180.005 198.064 179.788 197.527 179.427 197.092C179.354 197.031 179.27 196.986 179.18 196.959C179.09 196.932 178.995 196.923 178.901 196.934C178.644 196.934 178.568 197.092 178.551 197.197C178.48 197.647 179.432 198.505 179.911 198.721H179.952C179.97 198.725 179.988 198.723 180.005 198.716ZM179.322 197.238C179.621 197.584 179.805 198.015 179.847 198.47C179.357 198.172 178.714 197.495 178.755 197.226C178.755 197.226 178.755 197.139 178.942 197.121H178.994C179.114 197.119 179.23 197.161 179.322 197.238Z" fill="#A55EEA"/>
<path d="M184.334 198.642H180.35L179.953 189.414H183.936L184.334 198.642Z" fill="#E4897B"/>
<path d="M213.561 196.799L209.671 197.64L205.758 189.048L209.654 188.207L213.561 196.799Z" fill="#E4897B"/>
<path d="M209.297 197.247L213.672 196.301C213.749 196.284 213.83 196.294 213.901 196.329C213.972 196.364 214.029 196.422 214.063 196.494L215.582 199.788C215.619 199.868 215.637 199.956 215.635 200.045C215.633 200.133 215.611 200.22 215.57 200.299C215.53 200.378 215.472 200.446 215.401 200.499C215.33 200.553 215.248 200.589 215.161 200.606C213.631 200.909 212.866 200.979 210.944 201.4C209.776 201.657 207.089 202.305 205.454 202.661C203.818 203.018 203.264 201.447 203.894 201.155C206.75 199.846 207.948 198.696 208.719 197.65C208.856 197.45 209.062 197.307 209.297 197.247Z" fill="#263238"/>
<path d="M180.366 198.18H184.718C184.796 198.179 184.873 198.205 184.934 198.254C184.996 198.303 185.039 198.372 185.056 198.448L185.845 201.994C185.863 202.08 185.862 202.169 185.841 202.255C185.82 202.341 185.78 202.421 185.724 202.489C185.668 202.557 185.597 202.611 185.517 202.648C185.437 202.684 185.349 202.702 185.261 202.7C183.69 202.7 181.424 202.584 179.449 202.584C177.142 202.584 175.151 202.706 172.441 202.706C170.805 202.706 170.35 201.053 171.033 200.901C174.152 200.224 176.698 200.148 179.391 198.489C179.68 198.295 180.018 198.188 180.366 198.18Z" fill="#263238"/>
<path opacity="0.2" d="M179.953 189.414L180.158 194.174H184.141L183.936 189.414H179.953Z" fill="black"/>
<path opacity="0.2" d="M209.654 188.207L205.758 189.048L207.779 193.481L211.674 192.634L209.654 188.207Z" fill="black"/>
<path d="M182.039 104.633C182.039 104.633 186.56 133.836 189.048 144.776C191.764 156.755 206.342 196.39 206.342 196.39L213.474 194.912C213.474 194.912 203.282 162.613 200.998 145.85C199.246 133.001 195.794 104.621 195.794 104.621L182.039 104.633Z" fill="#263238"/>
<path opacity="0.3" d="M184.901 115.032C190.128 116.019 189.573 134.715 188.948 144.335C187.441 137.536 185.233 124.477 183.727 115.172C184.092 114.997 184.504 114.948 184.901 115.032Z" fill="black"/>
<path d="M174.486 104.629C174.486 104.629 173.937 133.202 174.369 144.854C174.819 156.973 179.234 196.661 179.234 196.661H185.98C185.98 196.661 186.231 157.68 186.529 145.777C186.856 132.799 188.492 104.629 188.492 104.629H174.486Z" fill="#263238"/>
<path d="M173.14 92.6315C173.345 97.123 173.724 102.158 174.443 107.344L196.053 106.69C196.053 106.69 195.837 88.4788 197.765 75.2262C197.765 75.2262 183.338 72.5746 173.199 75.0452C173.199 75.0452 172.994 78.0239 172.959 82.8075C172.936 85.5526 172.977 88.9051 173.14 92.6315Z" fill="#A55EEA"/>
<path d="M196.33 107.094L195.57 107.117L195.693 108.805L196.458 108.782L196.33 107.094Z" fill="black"/>
<path d="M194.792 107.148L188.297 107.353L188.425 109.047L194.903 108.836L194.792 107.148Z" fill="black"/>
<path d="M187.525 107.379L178.734 107.653L178.851 109.365L187.641 109.073L187.525 107.379Z" fill="black"/>
<path d="M174.203 107.795V109.512L178.076 109.389L177.959 107.672L174.203 107.795Z" fill="black"/>
<path opacity="0.7" d="M173.14 92.6315C173.345 97.123 173.724 102.158 174.443 107.344L196.053 106.69C196.053 106.69 195.837 88.4788 197.765 75.2262C197.765 75.2262 183.338 72.5746 173.199 75.0452C173.199 75.0452 172.994 78.0239 172.959 82.8075C172.936 85.5526 172.977 88.9051 173.14 92.6315Z" fill="white"/>
<path opacity="0.2" d="M173.144 92.6327C176.695 88.4507 177.571 81.6055 177.571 81.6055C175.959 81.6309 174.376 82.0435 172.957 82.8086C172.939 85.5538 172.98 88.9063 173.144 92.6327Z" fill="black"/>
<path d="M176.326 79.923C174.691 83.8888 170.374 94.7933 165.468 94.8634C159.809 94.4137 156.503 85.5183 155.539 80.7991L158.29 79.958C159.357 82.1801 160.608 84.3096 162.028 86.3243C163.126 87.767 164.212 89.198 165.836 89.7704H165.895C165.571 89.6503 165.217 89.636 164.884 89.7295C167.419 86.5405 169.282 81.7861 171.023 77.8203L176.344 79.9113L176.326 79.923Z" fill="#E4897B"/>
<path d="M157.004 72.2773L152.781 73.7609L153.868 77.4931L159.072 75.9862L157.004 72.2773Z" fill="#E4897B"/>
<path d="M158.82 80.947L159.071 75.9883L153.867 77.4952C153.867 77.4952 154.492 81.8991 156.554 82.0976L158.82 80.947Z" fill="#E4897B"/>
<path d="M173.191 75.0469C170.527 75.8178 165.656 87.4992 165.656 87.4992L172.396 91.6403C172.396 91.6403 178.074 85.1396 178.074 81.6819C178.074 75.444 173.191 75.0469 173.191 75.0469Z" fill="#A55EEA"/>
<path opacity="0.7" d="M173.191 75.0469C170.527 75.8178 165.656 87.4992 165.656 87.4992L172.396 91.6403C172.396 91.6403 178.074 85.1396 178.074 81.6819C178.074 75.444 173.191 75.0469 173.191 75.0469Z" fill="white"/>
<path d="M205.294 107.998C204.558 104.295 198.869 76.1074 196.942 75.0093L195.242 74.875C196.288 75.8796 196.521 76.709 203.705 108.401H204.961C205.011 108.401 205.06 108.39 205.106 108.368C205.151 108.347 205.191 108.316 205.223 108.278C205.254 108.239 205.277 108.194 205.29 108.146C205.302 108.097 205.303 108.047 205.294 107.998Z" fill="#263238"/>
</svg>
