<svg width="12" height="17" viewBox="0 0 12 17" fill="none" xmlns="http://www.w3.org/2000/svg">
<path d="M5.9974 10.668C5.30295 10.668 4.71267 10.4249 4.22656 9.9388C3.74045 9.45269 3.4974 8.86241 3.4974 8.16797V3.16797C3.4974 2.47352 3.74045 1.88325 4.22656 1.39714C4.71267 0.911024 5.30295 0.667969 5.9974 0.667969C6.69184 0.667969 7.28212 0.911024 7.76823 1.39714C8.25434 1.88325 8.4974 2.47352 8.4974 3.16797V8.16797C8.4974 8.86241 8.25434 9.45269 7.76823 9.9388C7.28212 10.4249 6.69184 10.668 5.9974 10.668ZM5.16406 16.5013V13.9388C3.71962 13.7444 2.52517 13.0985 1.58073 12.0013C0.636285 10.9041 0.164062 9.6263 0.164062 8.16797H1.83073C1.83073 9.32075 2.23712 10.3032 3.0499 11.1155C3.86212 11.9282 4.84462 12.3346 5.9974 12.3346C7.15017 12.3346 8.13295 11.9282 8.94573 11.1155C9.75795 10.3032 10.1641 9.32075 10.1641 8.16797H11.8307C11.8307 9.6263 11.3585 10.9041 10.4141 12.0013C9.46962 13.0985 8.27517 13.7444 6.83073 13.9388V16.5013H5.16406Z" fill="#C5C5C7"/>
</svg>
