<svg width="24" height="24" viewBox="0 0 24 24" fill="none" xmlns="http://www.w3.org/2000/svg">
<path d="M23.9956 12.0068C23.9956 11.8353 23.9624 11.6776 23.896 11.5337C23.8296 11.3898 23.73 11.2515 23.5972 11.1187L17.2139 4.86816C16.998 4.65788 16.7352 4.55273 16.4253 4.55273C16.2261 4.55273 16.0407 4.60254 15.8691 4.70215C15.6976 4.80176 15.5592 4.93734 15.4541 5.10889C15.3545 5.2749 15.3047 5.46029 15.3047 5.66504C15.3047 5.97493 15.4209 6.24609 15.6533 6.47852L21.3394 12.0068L15.6533 17.5352C15.4209 17.7731 15.3047 18.0443 15.3047 18.3486C15.3047 18.5589 15.3545 18.7471 15.4541 18.9131C15.5592 19.0791 15.6976 19.2119 15.8691 19.3115C16.0407 19.4111 16.2261 19.4609 16.4253 19.4609C16.7352 19.4609 16.998 19.3558 17.2139 19.1455L23.5972 12.895C23.7355 12.7622 23.8351 12.6239 23.896 12.48C23.9624 12.3306 23.9956 12.1729 23.9956 12.0068Z" fill="#3C3C43" fill-opacity="0.3"/>
</svg>
