<svg width="24" height="24" viewBox="0 0 24 24" fill="none" xmlns="http://www.w3.org/2000/svg">
<mask id="mask0_1395_4216" style="mask-type:alpha" maskUnits="userSpaceOnUse" x="0" y="0" width="24" height="24">
<rect width="24" height="24" fill="#D9D9D9"/>
</mask>
<g mask="url(#mask0_1395_4216)">
<path d="M18.5252 9L17.4252 6.6L15.0252 5.5L17.4252 4.4L18.5252 2L19.6252 4.4L22.0252 5.5L19.6252 6.6L18.5252 9ZM20.5252 16L19.7252 14.3L18.0252 13.5L19.7252 12.7L20.5252 11L21.3252 12.7L23.0252 13.5L21.3252 14.3L20.5252 16ZM7.5252 22L7.22519 19.65C7.09186 19.6 6.96286 19.5333 6.83819 19.45C6.71286 19.3667 6.60853 19.2833 6.5252 19.2L4.3252 20.15L1.8252 15.8L3.7252 14.4V13.6L1.8252 12.2L4.3252 7.85L6.5252 8.8C6.60853 8.71667 6.71286 8.63333 6.83819 8.55C6.96286 8.46667 7.09186 8.4 7.22519 8.35L7.5252 6H12.5252L12.8252 8.35C12.9585 8.4 13.0879 8.46667 13.2132 8.55C13.3379 8.63333 13.4419 8.71667 13.5252 8.8L15.7252 7.85L18.2252 12.2L16.3252 13.6V14.4L18.2252 15.8L15.7252 20.15L13.5252 19.2C13.4419 19.2833 13.3379 19.3667 13.2132 19.45C13.0879 19.5333 12.9585 19.6 12.8252 19.65L12.5252 22H7.5252ZM10.0252 17C10.8585 17 11.5669 16.7083 12.1502 16.125C12.7335 15.5417 13.0252 14.8333 13.0252 14C13.0252 13.1667 12.7335 12.4583 12.1502 11.875C11.5669 11.2917 10.8585 11 10.0252 11C9.19186 11 8.48353 11.2917 7.9002 11.875C7.31686 12.4583 7.0252 13.1667 7.0252 14C7.0252 14.8333 7.31686 15.5417 7.9002 16.125C8.48353 16.7083 9.19186 17 10.0252 17Z" fill="#C5C5C7"/>
</g>
</svg>
