<svg width="24" height="24" viewBox="0 0 24 24" fill="none" xmlns="http://www.w3.org/2000/svg">
<mask id="mask0_1443_25603" style="mask-type:alpha" maskUnits="userSpaceOnUse" x="0" y="0" width="24" height="24">
<rect width="24" height="24" fill="#D9D9D9"/>
</mask>
<g mask="url(#mask0_1443_25603)">
<path d="M9.2 16L12 13.9L14.75 16L13.7 12.6L16.5 10.4H13.1L12 7L10.9 10.4H7.5L10.25 12.6L9.2 16ZM4 20C3.45 20 2.97933 19.8043 2.588 19.413C2.196 19.021 2 18.55 2 18V14C2.55 14 3.021 13.804 3.413 13.412C3.80433 13.0207 4 12.55 4 12C4 11.45 3.80433 10.979 3.413 10.587C3.021 10.1957 2.55 10 2 10V6C2 5.45 2.196 4.97933 2.588 4.588C2.97933 4.196 3.45 4 4 4H20C20.55 4 21.021 4.196 21.413 4.588C21.8043 4.97933 22 5.45 22 6V10C21.45 10 20.979 10.1957 20.587 10.587C20.1957 10.979 20 11.45 20 12C20 12.55 20.1957 13.0207 20.587 13.412C20.979 13.804 21.45 14 22 14V18C22 18.55 21.8043 19.021 21.413 19.413C21.021 19.8043 20.55 20 20 20H4Z" fill="#C5C5C7"/>
</g>
</svg>
